<svg width="178" height="161" viewBox="0 0 178 161" fill="none" xmlns="http://www.w3.org/2000/svg">
<g clip-path="url(#clip0_337_9619)">
<g clip-path="url(#clip1_337_9619)">
<g clip-path="url(#clip2_337_9619)">
<path d="M85.2725 160.669C131.946 160.669 169.782 158.46 169.782 155.735C169.782 153.009 131.946 150.8 85.2725 150.8C38.5995 150.8 0.763672 153.009 0.763672 155.735C0.763672 158.46 38.5995 160.669 85.2725 160.669Z" fill="#F5F5F5"/>
<path d="M122.189 43.4527C122.11 44.7603 121.958 45.9589 121.788 47.2011C121.617 48.4433 121.387 49.6594 121.125 50.8798C120.615 53.3497 119.878 55.7674 118.924 58.102L118.527 58.9736L118.431 59.1916L118.397 59.3049L118.327 59.4444C118.194 59.718 118.026 59.9729 117.826 60.2028C117.588 60.4702 117.304 60.693 116.989 60.8609C116.679 61.0237 116.342 61.1298 115.995 61.1747C115.462 61.2318 114.923 61.1753 114.413 61.0091C113.691 60.7626 113.009 60.4101 112.391 59.9631C111.849 59.5815 111.333 59.1667 110.843 58.7208C109.009 57.0198 107.358 55.131 105.918 53.0852L107.361 51.8605C108.232 52.6668 109.104 53.4818 109.976 54.2534C110.843 55.0247 111.747 55.752 112.687 56.4326C113.129 56.749 113.589 57.0401 114.064 57.3043C114.447 57.5367 114.861 57.7142 115.293 57.8317C115.442 57.8622 115.546 57.8317 115.499 57.8317C115.396 57.8431 115.299 57.8875 115.223 57.9581C115.197 57.9581 115.197 57.9581 115.223 57.9581L115.363 57.5964L115.668 56.803C116.424 54.6191 117.014 52.3812 117.434 50.1083C117.664 48.9664 117.826 47.8026 118 46.6475C118.174 45.4926 118.296 44.3027 118.397 43.2L122.189 43.4527Z" fill="#FFC3BD"/>
<path d="M119.548 38.654C117.923 39.0681 116.786 45.7542 116.786 45.7542L121.261 48.8052C121.261 48.8052 125.555 42.0625 124.313 40.2754C123.005 38.4056 121.92 38.0525 119.548 38.654Z" fill="#1AB76D"/>
<path d="M119.548 38.654C117.923 39.0681 116.786 45.7542 116.786 45.7542L121.261 48.8052C121.261 48.8052 125.555 42.0625 124.313 40.2754C123.005 38.4056 121.92 38.0525 119.548 38.654Z" fill="#2D56B3"/>
<path opacity="0.4" d="M119.548 38.654C117.923 39.0681 116.786 45.7542 116.786 45.7542L121.261 48.8052C121.261 48.8052 125.555 42.0625 124.313 40.2754C123.005 38.4056 121.92 38.0525 119.548 38.654Z" fill="black"/>
<path opacity="0.3" d="M119.691 40.1489L118.445 46.883L120.96 48.5915L119.691 40.1489Z" fill="black"/>
<path d="M107.435 51.5861L105.322 48.2212L104.114 52.0438C104.114 52.0438 105.858 53.8744 107.44 53.4385L107.435 51.5861Z" fill="#FFC3BD"/>
<path d="M102.184 47.1099L101.347 50.3614L104.097 52.0438L105.304 48.2214L102.184 47.1099Z" fill="#FFC3BD"/>
<path d="M128.336 151.162H124.395L124.129 142.036H128.074L128.336 151.162Z" fill="#FFC3BD"/>
<path d="M163.112 132.856L160.108 135.411L153.235 129.274L156.239 126.724L163.112 132.856Z" fill="#FFC3BD"/>
<path d="M159.286 135.106L162.201 131.767C162.251 131.709 162.32 131.671 162.395 131.661C162.471 131.651 162.547 131.668 162.611 131.71L165.579 133.633C165.652 133.683 165.714 133.749 165.76 133.826C165.805 133.902 165.835 133.987 165.845 134.076C165.857 134.164 165.848 134.254 165.821 134.339C165.795 134.424 165.752 134.502 165.692 134.57C164.655 135.716 164.097 136.216 162.816 137.682C162.031 138.583 160.972 139.987 159.882 141.229C158.793 142.471 157.503 141.469 157.847 140.851C159.377 138.087 159.01 137.119 159.036 135.759C159.041 135.519 159.129 135.287 159.286 135.106Z" fill="#263238"/>
<path d="M124.26 150.709H128.689C128.765 150.709 128.838 150.735 128.897 150.785C128.954 150.834 128.991 150.904 129.003 150.98L129.508 154.466C129.523 154.559 129.516 154.653 129.49 154.742C129.463 154.831 129.417 154.914 129.355 154.983C129.293 155.053 129.217 155.108 129.131 155.144C129.045 155.181 128.951 155.198 128.859 155.194C127.316 155.168 126.571 155.077 124.622 155.077C123.423 155.077 120.948 155.202 119.291 155.202C117.635 155.202 117.548 153.564 118.241 153.421C121.328 152.753 122.543 151.838 123.585 150.962C123.772 150.799 124.012 150.709 124.26 150.709Z" fill="#263238"/>
<path opacity="0.2" d="M124.133 142.04L124.268 146.743H128.208L128.073 142.04H124.133Z" fill="black"/>
<path opacity="0.2" d="M156.243 126.724L153.235 129.274L156.784 132.438L159.786 129.884L156.243 126.724Z" fill="black"/>
<path d="M119.548 38.654C119.548 38.654 117.67 39.3165 121.431 62.4432H137.436C137.17 55.927 137.162 51.9085 140.274 38.5407C138.033 38.0786 135.762 37.7787 133.478 37.6428C131.058 37.4703 128.628 37.4703 126.208 37.6428C123.088 37.9479 119.548 38.654 119.548 38.654Z" fill="#2D56B3"/>
<path opacity="0.4" d="M119.548 38.654C119.548 38.654 117.67 39.3165 121.431 62.4432H137.436C137.17 55.927 137.162 51.9085 140.274 38.5407C138.033 38.0786 135.762 37.7787 133.478 37.6428C131.058 37.4703 128.628 37.4703 126.208 37.6428C123.088 37.9479 119.548 38.654 119.548 38.654Z" fill="black"/>
<path d="M133.478 37.6428C131.058 37.4703 128.629 37.4703 126.208 37.6428C125.816 37.6776 125.415 37.7213 125.018 37.7692C124.854 38.0169 124.749 38.299 124.711 38.5937C124.673 38.8885 124.704 39.1879 124.8 39.469C125.31 40.7373 127.15 40.8856 128.491 40.8856C133.448 40.8856 134.285 37.9914 134.319 37.8694L134.367 37.6951C134.088 37.6776 133.775 37.6559 133.478 37.6428Z" fill="white"/>
<path d="M132.781 29.4617C132.319 31.798 131.866 36.0825 133.5 37.6428C133.5 37.6428 132.86 40.0182 128.514 40.0182C123.72 40.0182 126.23 37.6471 126.23 37.6471C128.845 37.0238 128.771 35.0887 128.318 33.2886L132.781 29.4617Z" fill="#FFC3BD"/>
<path opacity="0.2" d="M130.938 31.0134L128.297 33.2669C128.41 33.6952 128.487 34.1328 128.523 34.5744C129.517 34.4306 130.885 33.3366 130.995 32.2949C131.056 31.8679 131.036 31.4333 130.938 31.0134Z" fill="black"/>
<path d="M130.04 16.7433C129.634 15.3703 129.295 13.2085 131.736 12.2322C130.781 11.064 130.549 8.86729 131.736 7.56408C132.921 6.26085 134.699 6.7403 134.699 6.7403C134.699 6.7403 135.222 3.55417 139.097 4.12514C142.972 4.69611 141.246 7.24589 141.246 7.24589C141.246 7.24589 146.533 6.19983 146.886 11.1686C147.239 16.1375 144.205 15.5272 144.205 15.5272C144.205 15.5272 146.563 17.506 145.255 19.681C143.948 21.8559 140.928 21.1062 140.928 21.1062C140.928 21.1062 139.507 24.9505 136.16 22.7625C132.812 20.5744 130.04 16.7433 130.04 16.7433Z" fill="#263238"/>
<path d="M122.189 19.6417C120.882 21.3329 121.457 23.2464 122.626 24.0003C125.436 25.796 129.503 18.2644 128.444 17.3622C127.385 16.4599 123.497 17.9462 122.189 19.6417Z" fill="#263238"/>
<path d="M133.997 15.6147C132.149 14.8693 130.275 15.6495 129.691 16.7741C128.265 19.5156 134.738 24.4538 136.612 21.0281C137.723 18.9926 135.901 16.3817 133.997 15.6147Z" fill="#2D56B3"/>
<path d="M133.216 24.0007C133.351 27.9234 133.49 29.5622 131.717 31.7458C129.054 35.028 124.22 34.3393 122.921 30.5472C121.753 27.1345 121.732 21.3157 125.389 19.4067C126.192 18.9815 127.092 18.7688 128 18.7889C128.91 18.809 129.799 19.0611 130.583 19.5213C131.367 19.9817 132.021 20.6348 132.481 21.4188C132.943 22.2028 133.195 23.0915 133.216 24.0007Z" fill="#FFC3BD"/>
<path d="M132.628 26.0533C130.885 25.4038 130.449 23.3684 130.728 22.5664C129.857 22.5315 127.952 22.2177 127.241 21.1368C125.881 22.0086 123.009 22.8802 122.699 21.4288C122.391 19.9774 126.723 16.2465 130.001 15.9589C133.897 15.6189 137.741 19.4457 136.752 23.1113C135.762 26.7769 132.628 26.0533 132.628 26.0533Z" fill="#263238"/>
<path d="M121.448 62.4434C121.448 62.4434 118.341 92.801 118.598 104.822C118.868 117.322 123.449 145.832 123.449 145.832H128.775C128.775 145.832 127.934 118.05 128.405 105.776C128.919 92.3913 133.169 62.4434 133.169 62.4434H121.448Z" fill="#263238"/>
<path d="M129.22 146.024H122.97L122.507 144.032L129.511 143.788L129.22 146.024Z" fill="#2D56B3"/>
<path opacity="0.2" d="M128.336 69.9969C124.412 77.9033 127.546 92.3302 128.937 97.7001C129.648 89.6367 130.85 79.7819 131.787 72.5466C131.194 68.4583 130.165 66.3487 128.336 69.9969Z" fill="black"/>
<path d="M125.659 62.4434C125.659 62.4434 129.285 94.0039 132.022 104.138C135.274 116.168 155.468 132.359 155.468 132.359L159.565 128.872C159.565 128.872 144.929 111.281 142.439 104.944C137.136 91.4324 141.677 71.2608 137.436 62.4346L125.659 62.4434Z" fill="#263238"/>
<path d="M160.218 128.694L155.136 133.01L153.235 131.871L158.984 126.524L160.218 128.694Z" fill="#2D56B3"/>
<path d="M127.416 25.6394C127.446 25.9575 127.302 26.2278 127.098 26.2496C126.893 26.2713 126.697 26.0273 126.662 25.7135C126.627 25.3997 126.776 25.1207 126.985 25.1032C127.194 25.0859 127.386 25.3082 127.416 25.6394Z" fill="#263238"/>
<path d="M123.84 25.9838C123.871 26.2975 123.727 26.5721 123.518 26.594C123.309 26.6158 123.121 26.3717 123.083 26.0535C123.043 25.7353 123.196 25.4651 123.4 25.4477C123.605 25.4302 123.811 25.6655 123.84 25.9838Z" fill="#263238"/>
<path d="M123.502 25.4563L122.722 25.3081C122.722 25.3081 123.193 25.866 123.502 25.4563Z" fill="#263238"/>
<path d="M124.835 26.437C124.623 27.1853 124.309 27.901 123.902 28.5641C124.075 28.6635 124.268 28.7243 124.466 28.7423C124.665 28.7604 124.865 28.7353 125.053 28.6686L124.835 26.437Z" fill="#ED847E"/>
<path d="M126.81 29.7101C126.637 29.7575 126.46 29.7895 126.282 29.806C126.27 29.8073 126.258 29.806 126.246 29.8025C126.235 29.7989 126.225 29.7932 126.214 29.7856C126.205 29.7778 126.197 29.7683 126.193 29.7577C126.187 29.7469 126.184 29.7353 126.182 29.7232C126.179 29.6985 126.187 29.6737 126.202 29.6541C126.218 29.6346 126.24 29.6219 126.265 29.6186C126.659 29.5896 127.042 29.4684 127.38 29.2648C127.72 29.0611 128.006 28.7807 128.218 28.4462C128.222 28.4346 128.23 28.4243 128.24 28.4159C128.249 28.4075 128.26 28.4013 128.272 28.3975C128.284 28.3937 128.297 28.3927 128.309 28.3943C128.321 28.3959 128.333 28.4002 128.344 28.407C128.365 28.419 128.381 28.4387 128.389 28.4623C128.396 28.4858 128.394 28.5112 128.384 28.5334C128.032 29.1152 127.467 29.5373 126.81 29.7101Z" fill="#263238"/>
<path d="M134.132 26.7073C134.037 27.4573 133.648 28.1392 133.05 28.6034C132.253 29.2135 131.486 28.6034 131.394 27.6488C131.316 26.7771 131.63 25.4695 132.58 25.2167C132.788 25.1745 133.002 25.1832 133.205 25.2422C133.408 25.301 133.594 25.4085 133.746 25.555C133.9 25.7016 134.014 25.8831 134.081 26.0838C134.149 26.2845 134.166 26.4985 134.132 26.7073Z" fill="#FFC3BD"/>
<path d="M127.8 23.3992C127.775 23.4054 127.75 23.4065 127.726 23.4028C127.7 23.3991 127.676 23.3904 127.656 23.3774C127.458 23.2513 127.233 23.1737 127 23.151C126.767 23.1282 126.531 23.161 126.313 23.2466C126.267 23.2667 126.216 23.269 126.169 23.2528C126.122 23.2367 126.083 23.2033 126.06 23.1594C126.039 23.115 126.036 23.0639 126.052 23.0174C126.07 22.9709 126.103 22.9327 126.147 22.911C126.422 22.7977 126.72 22.752 127.016 22.7777C127.311 22.8035 127.596 22.9001 127.848 23.0592C127.868 23.0718 127.886 23.0882 127.9 23.1078C127.914 23.1272 127.924 23.1494 127.93 23.1729C127.936 23.1965 127.937 23.2208 127.934 23.2447C127.929 23.2686 127.921 23.2914 127.908 23.312C127.884 23.3537 127.846 23.3848 127.8 23.3992Z" fill="#263238"/>
<path d="M122.089 24.4843C122.044 24.5013 121.995 24.5013 121.949 24.4843C121.907 24.4596 121.876 24.4196 121.862 24.3726C121.849 24.3255 121.853 24.2751 121.875 24.2315C122.009 23.9662 122.203 23.737 122.444 23.5631C122.684 23.3894 122.963 23.2763 123.257 23.2333C123.282 23.2309 123.306 23.2334 123.33 23.2407C123.353 23.248 123.374 23.26 123.394 23.2759C123.412 23.2917 123.427 23.3111 123.438 23.3331C123.45 23.355 123.455 23.3789 123.458 23.4034C123.461 23.4524 123.445 23.5008 123.413 23.5383C123.382 23.5758 123.337 23.5994 123.287 23.6038C123.057 23.6427 122.837 23.7356 122.649 23.875C122.46 24.0143 122.307 24.1961 122.202 24.4057C122.19 24.4261 122.173 24.4435 122.154 24.4571C122.134 24.4705 122.113 24.4798 122.089 24.4843Z" fill="#263238"/>
<path d="M141.909 42.7905C142.797 44.9647 143.564 47.1866 144.205 49.4461C144.885 51.7252 145.369 54.0583 145.653 56.4198C145.726 57.0213 145.749 57.6533 145.774 58.2766V58.6296C145.774 58.756 145.752 58.8868 145.735 59.0001C145.698 59.2179 145.649 59.4333 145.586 59.6452C145.473 60.0076 145.327 60.3593 145.151 60.6956C144.546 61.8131 143.806 62.8511 142.945 63.7858C141.354 65.5336 139.604 67.1285 137.716 68.5498L136.455 67.1507C137.906 65.4552 139.372 63.7161 140.614 61.9204C141.214 61.1054 141.725 60.2288 142.14 59.3052C142.21 59.1265 142.269 58.943 142.313 58.7561C142.326 58.6927 142.333 58.6287 142.335 58.5642C142.337 58.5455 142.337 58.5264 142.335 58.5076V58.4466C142.279 57.9322 142.239 57.4179 142.143 56.8905C141.768 54.7374 141.246 52.6127 140.578 50.5313C139.912 48.4219 139.167 46.2818 138.399 44.2419L141.909 42.7905Z" fill="#FFC3BD"/>
<path d="M140.274 38.5408C141.877 39.0289 143.804 44.5512 143.804 44.5512L137.575 48.9969C137.575 48.9969 135.305 44.3899 135.98 42.3152C136.703 40.1578 138.447 37.9828 140.274 38.5408Z" fill="#2D56B3"/>
<path opacity="0.4" d="M140.274 38.5408C141.877 39.0289 143.804 44.5512 143.804 44.5512L137.575 48.9969C137.575 48.9969 135.305 44.3899 135.98 42.3152C136.703 40.1578 138.447 37.9828 140.274 38.5408Z" fill="black"/>
<path d="M158.209 137.006C158.129 137.004 158.049 136.983 157.978 136.947C157.906 136.909 157.843 136.856 157.795 136.792C157.755 136.751 157.728 136.701 157.714 136.646C157.7 136.591 157.7 136.533 157.716 136.478C157.865 135.999 159.233 135.606 159.391 135.563C159.408 135.557 159.426 135.557 159.443 135.562C159.46 135.567 159.476 135.579 159.487 135.594C159.496 135.609 159.502 135.626 159.502 135.644C159.502 135.661 159.496 135.679 159.487 135.694C159.242 136.161 158.759 136.944 158.262 137.002L158.209 137.006ZM159.22 135.807C158.68 135.981 157.974 136.283 157.913 136.535C157.906 136.559 157.906 136.584 157.913 136.608C157.92 136.632 157.934 136.653 157.952 136.67C157.987 136.72 158.034 136.76 158.089 136.786C158.144 136.812 158.206 136.823 158.266 136.819C158.519 136.788 158.872 136.413 159.22 135.807Z" fill="#2D56B3"/>
<path d="M158.789 135.824C158.381 135.866 157.973 135.751 157.646 135.502C157.601 135.444 157.576 135.373 157.576 135.3C157.576 135.226 157.601 135.155 157.646 135.096C157.685 135.036 157.737 134.986 157.798 134.948C157.86 134.91 157.928 134.886 157.999 134.878C158.566 134.808 159.425 135.55 159.46 135.581C159.472 135.59 159.482 135.604 159.487 135.62C159.493 135.635 159.494 135.652 159.49 135.668C159.488 135.685 159.481 135.701 159.471 135.714C159.46 135.727 159.446 135.736 159.429 135.742C159.221 135.8 159.005 135.829 158.789 135.824ZM158.095 135.062H158.034C157.99 135.067 157.946 135.082 157.909 135.104C157.87 135.128 157.837 135.159 157.812 135.197C157.746 135.298 157.768 135.349 157.812 135.384C157.982 135.606 158.758 135.69 159.229 135.603C158.906 135.324 158.514 135.136 158.095 135.062Z" fill="#2D56B3"/>
<path d="M122.778 151.398C122.441 151.429 122.104 151.342 121.824 151.153C121.763 151.1 121.717 151.031 121.688 150.956C121.658 150.88 121.646 150.799 121.653 150.718C121.657 150.666 121.674 150.616 121.701 150.573C121.73 150.529 121.769 150.494 121.814 150.47C122.299 150.204 123.868 151.006 124.046 151.102C124.062 151.111 124.076 151.125 124.085 151.142C124.093 151.159 124.097 151.178 124.094 151.197C124.092 151.216 124.083 151.234 124.07 151.248C124.057 151.263 124.04 151.272 124.02 151.276C123.611 151.354 123.195 151.396 122.778 151.398ZM122.076 150.583C122.016 150.578 121.956 150.591 121.901 150.617C121.883 150.626 121.867 150.641 121.857 150.658C121.846 150.677 121.841 150.697 121.841 150.718C121.834 150.773 121.84 150.828 121.859 150.879C121.877 150.932 121.909 150.977 121.949 151.014C122.189 151.232 122.821 151.268 123.693 151.124C123.189 150.852 122.642 150.67 122.076 150.583Z" fill="#1AB76D"/>
<path d="M124.002 151.271H123.963C123.492 151.058 122.564 150.208 122.656 149.764C122.656 149.658 122.747 149.524 123.004 149.497C123.097 149.488 123.191 149.497 123.28 149.525C123.369 149.552 123.452 149.598 123.523 149.658C124.016 150.073 124.107 151.132 124.112 151.18C124.113 151.196 124.109 151.212 124.103 151.226C124.096 151.241 124.085 151.254 124.072 151.263C124.061 151.269 124.05 151.273 124.039 151.274C124.026 151.277 124.013 151.276 124.002 151.271ZM123.061 149.672H123.009C122.834 149.672 122.826 149.759 122.821 149.781C122.778 150.047 123.41 150.718 123.889 151.006C123.85 150.558 123.673 150.133 123.384 149.79C123.296 149.709 123.18 149.662 123.061 149.658V149.672Z" fill="#1AB76D"/>
<path d="M137.675 61.4844L138.085 62.9185C138.141 63.0274 138.011 63.1408 137.824 63.1408H121.353C121.209 63.1408 121.087 63.071 121.078 62.9795L120.934 61.5498C120.934 61.4496 121.048 61.3667 121.209 61.3667H137.418C137.468 61.3626 137.517 61.3712 137.562 61.3919C137.608 61.4124 137.646 61.4443 137.675 61.4844Z" fill="#2D56B3"/>
<path opacity="0.3" d="M137.675 61.4844L138.085 62.9185C138.141 63.0274 138.011 63.1408 137.824 63.1408H121.353C121.209 63.1408 121.087 63.071 121.078 62.9795L120.934 61.5498C120.934 61.4496 121.048 61.3667 121.209 61.3667H137.418C137.468 61.3626 137.517 61.3712 137.562 61.3919C137.608 61.4124 137.646 61.4443 137.675 61.4844Z" fill="white"/>
<path d="M135.501 63.315H135.936C136.02 63.315 136.085 63.2714 136.08 63.2148L135.876 61.3536C135.876 61.3013 135.797 61.2534 135.71 61.2534H135.275C135.188 61.2534 135.122 61.3013 135.131 61.3536L135.331 63.2148C135.34 63.2714 135.397 63.315 135.501 63.315Z" fill="#263238"/>
<path d="M122.573 63.315H123.008C123.096 63.315 123.161 63.2714 123.157 63.2148L122.952 61.3536C122.952 61.3013 122.869 61.2534 122.786 61.2534H122.351C122.263 61.2534 122.198 61.3013 122.202 61.3536L122.407 63.2148C122.412 63.2714 122.486 63.315 122.573 63.315Z" fill="#263238"/>
<path d="M129.037 63.315H129.473C129.561 63.315 129.626 63.2714 129.621 63.2148L129.417 61.3536C129.417 61.3013 129.338 61.2534 129.251 61.2534H128.815C128.728 61.2534 128.663 61.3013 128.672 61.3536L128.859 63.2278C128.859 63.2714 128.951 63.315 129.037 63.315Z" fill="#263238"/>
<path d="M127.079 25.1118L126.3 24.9636C126.3 24.9636 126.744 25.5216 127.079 25.1118Z" fill="#263238"/>
<path opacity="0.2" d="M112.653 80.6142C105.268 83.4831 97.1988 84.0978 89.4651 82.3806C81.7314 80.6635 74.6806 76.6917 69.2041 70.9673C63.7276 65.2431 60.0715 58.0233 58.6983 50.2212C57.3249 42.4191 58.296 34.3849 61.4886 27.1346C64.6813 19.8845 69.9522 13.7438 76.6348 9.48903C83.3173 5.23435 91.1115 3.05678 99.0317 3.23169C106.952 3.4066 114.642 5.92613 121.131 10.4717C127.619 15.0172 132.614 21.3847 135.482 28.7688C137.389 33.672 138.31 38.9027 138.194 44.162C138.079 49.4214 136.928 54.6064 134.807 59.4209C132.687 64.2354 129.64 68.5851 125.838 72.2215C122.037 75.8579 117.556 78.7098 112.653 80.6142Z" fill="#2D56B3"/>
<path opacity="0.1" d="M105.404 3.88577L73.9875 75.236C73.5038 74.8699 73.0242 74.4907 72.5535 74.1071C69.5171 71.5951 66.8728 68.6438 64.708 65.3506L91.8447 3.72014C96.3405 2.99604 100.927 3.05206 105.404 3.88577Z" fill="white"/>
<path opacity="0.1" d="M127.737 16.2639L98.1989 83.347C92.0634 83.3536 86.0087 81.9488 80.5029 79.2413L112.757 5.98633C118.471 8.22101 123.595 11.7371 127.737 16.2639Z" fill="white"/>
<path d="M65.1706 16.2944C70.508 9.77276 77.6594 4.98019 85.7205 2.52284C93.7816 0.0654877 102.39 0.0537153 110.458 2.48901C118.526 4.92431 125.691 9.69731 131.046 16.2044C136.401 22.7115 139.706 30.6605 140.544 39.0462C141.382 47.4318 139.713 55.8775 135.751 63.3152C131.789 70.7529 125.71 76.8487 118.283 80.8315C110.856 84.8142 102.415 86.5054 94.027 85.6909C85.6392 84.8764 77.6811 81.5929 71.1593 76.2556C62.4147 69.0978 56.8713 58.7598 55.7482 47.5152C54.6251 36.2707 58.0145 25.0405 65.1706 16.2944ZM128.422 68.0571C133.321 62.0683 136.335 54.7612 137.081 47.0599C137.829 39.3585 136.274 31.6087 132.616 24.7904C128.959 17.9721 123.362 12.3915 116.532 8.7543C109.703 5.11711 101.948 3.58664 94.2494 4.35642C86.5502 5.12621 79.2523 8.16168 73.2783 13.0791C67.3044 17.9963 62.9226 24.5746 60.6872 31.9822C58.4518 39.3897 58.463 47.2938 60.7197 54.695C62.9762 62.0961 67.3767 68.6618 73.3647 73.5621C77.3412 76.8162 81.9197 79.255 86.8388 80.7396C91.7578 82.224 96.9211 82.7249 102.034 82.2137C107.147 81.7025 112.109 80.1893 116.636 77.7602C121.164 75.3312 125.169 72.0341 128.422 68.0571Z" fill="#2D56B3"/>
<path d="M132.184 67.9089C136.382 70.4151 140.374 73.1698 144.297 76.0116C148.219 78.8533 152.042 81.8128 155.803 84.8508C159.564 87.8887 163.257 91.0138 166.818 94.2958C168.602 95.9347 170.345 97.6172 172.047 99.3431C173.756 101.087 175.435 102.83 177.016 104.722C177.382 105.16 177.583 105.711 177.587 106.282C177.589 106.852 177.394 107.406 177.032 107.847C176.671 108.289 176.167 108.591 175.607 108.701C175.048 108.812 174.467 108.724 173.965 108.453C171.786 107.276 169.747 105.977 167.711 104.648C165.675 103.318 163.688 101.932 161.726 100.507C157.804 97.665 154.008 94.6707 150.29 91.5805C146.571 88.4902 142.911 85.3303 139.35 82.0439C135.789 78.7575 132.297 75.3926 129.01 71.7751C128.6 71.3275 128.366 70.7472 128.349 70.1403C128.332 69.5334 128.534 68.9407 128.918 68.4709C129.303 68.0011 129.843 67.6856 130.442 67.5824C131.04 67.4791 131.656 67.5951 132.175 67.9089H132.184Z" fill="#2D56B3"/>
<path d="M136.873 66.7148L132.663 67.3555L135.674 69.9968C135.674 69.9968 138.055 69.1251 138.29 67.5124L136.873 66.7148Z" fill="#FFC3BD"/>
<path d="M130.388 69.7746L133.033 71.8493L136.263 69.7398L132.663 67.3643L130.388 69.7746Z" fill="#FFC3BD"/>
<path d="M110.483 74.364C110.868 73.3142 111.561 72.4054 112.472 71.7573C113.383 71.1093 114.469 70.7523 115.587 70.7333H150.477C151.081 70.7108 151.68 70.8209 152.237 71.0557C152.792 71.2906 153.29 71.6445 153.694 72.0925C154.098 72.5406 154.398 73.0719 154.575 73.649C154.751 74.2259 154.799 74.8345 154.715 75.4319L145.701 151.058C145.509 152.345 144.866 153.522 143.886 154.379C142.907 155.237 141.654 155.717 140.353 155.735H29.6443C29.0434 155.758 28.4449 155.648 27.8907 155.415C27.3365 155.182 26.8402 154.83 26.4368 154.384C26.0332 153.938 25.7325 153.409 25.5554 152.834C25.3784 152.259 25.3295 151.654 25.412 151.058L32.9698 87.5183C33.1611 86.2308 33.8042 85.0535 34.784 84.1966C35.7637 83.3398 37.0164 82.8594 38.3179 82.8415H98.5624C101.173 82.797 103.709 81.9633 105.837 80.4502C107.964 78.9371 109.584 76.8153 110.483 74.364Z" fill="#2D56B3"/>
<path d="M27.4043 152.251H143.085L149.676 74.4163H33.9989L27.4043 152.251Z" fill="#F0F0F0"/>
<path d="M27.4043 152.251H143.085L147.854 74.4163H33.9989L27.4043 152.251Z" fill="#E0E0E0"/>
<path d="M27.4043 152.253H143.085L147.061 71.9451H31.3838L27.4043 152.253Z" fill="#F0F0F0"/>
<path d="M27.4043 152.253H143.085L144.659 71.9451H31.3838L27.4043 152.253Z" fill="#E0E0E0"/>
<path d="M27.4043 152.253H143.085L143.774 69.7656H28.0973L27.4043 152.253Z" fill="#F0F0F0"/>
<path d="M27.4031 152.253H143.084L140.71 71.3262H25.7773L27.4031 152.253Z" fill="#E0E0E0"/>
<path d="M27.4048 152.253H143.086L139.652 71.9451H23.9746L27.4048 152.253Z" fill="#F0F0F0"/>
<path d="M27.4042 152.253H143.086L137.615 73.1567H21.9385L27.4042 152.253Z" fill="#E0E0E0"/>
<path d="M27.4029 152.253H143.084L136.743 73.8323H21.0654L27.4029 152.253Z" fill="#F0F0F0"/>
<path d="M85.3338 79.2761C85.3402 78.7704 85.4485 78.2712 85.6518 77.8082C85.8552 77.3451 86.1497 76.9277 86.5177 76.5809C86.8858 76.2339 87.3199 75.9646 87.7941 75.789C88.2684 75.6133 88.7731 75.5348 89.2783 75.5582H124.169C125.52 75.6101 126.815 76.1091 127.852 76.9769C128.888 77.8446 129.607 79.032 129.896 80.3527L143.682 150.963C144.197 153.608 142.471 155.757 139.825 155.757H29.1167C26.4666 155.757 23.8864 153.608 23.3851 150.963L12.0135 92.7529C11.4992 90.1073 13.2252 87.9585 15.8708 87.9585H76.1197C81.35 87.9585 85.1551 84.3583 85.3338 79.2761Z" fill="#2D56B3"/>
<path opacity="0.2" d="M85.3338 79.2761C85.3402 78.7704 85.4485 78.2712 85.6518 77.8082C85.8552 77.3451 86.1497 76.9277 86.5177 76.5809C86.8858 76.2339 87.3199 75.9646 87.7941 75.789C88.2684 75.6133 88.7731 75.5348 89.2783 75.5582H124.169C125.52 75.6101 126.815 76.1091 127.852 76.9769C128.888 77.8446 129.607 79.032 129.896 80.3527L143.682 150.963C144.197 153.608 142.471 155.757 139.825 155.757H29.1167C26.4666 155.757 23.8864 153.608 23.3851 150.963L12.0135 92.7529C11.4992 90.1073 13.2252 87.9585 15.8708 87.9585H76.1197C81.35 87.9585 85.1551 84.3583 85.3338 79.2761Z" fill="black"/>
</g>
</g>
</g>
<defs>
<clipPath id="clip0_337_9619">
<rect width="177.14" height="160" fill="white" transform="translate(0.763672 0.669922)"/>
</clipPath>
<clipPath id="clip1_337_9619">
<rect width="177.14" height="160" fill="white" transform="translate(0.763672 0.669922)"/>
</clipPath>
<clipPath id="clip2_337_9619">
<rect width="177.14" height="159.997" fill="white" transform="translate(0.763672 0.671143)"/>
</clipPath>
</defs>
</svg>
