<svg width="216" height="161" viewBox="0 0 216 161" fill="none" xmlns="http://www.w3.org/2000/svg">
<g clip-path="url(#clip0_337_9555)">
<g clip-path="url(#clip1_337_9555)">
<g clip-path="url(#clip2_337_9555)">
<path d="M107.762 160.67C167.277 160.67 215.523 157.853 215.523 154.379C215.523 150.903 167.277 148.087 107.762 148.087C48.2465 148.087 0 150.903 0 154.379C0 157.853 48.2465 160.67 107.762 160.67Z" fill="#F5F5F5"/>
<path d="M198.711 5.42188H114.942C114.942 5.42188 99.8525 19.3165 99.8525 53.0973C99.8525 82.1483 111.296 121.537 107 137.661C103.76 149.826 88.0476 151.917 80.5166 152.205H160.25C160.25 152.205 186.472 153.789 190.768 137.661C195.064 121.532 183.62 82.1483 183.62 53.0917C183.62 19.2944 198.711 5.42188 198.711 5.42188Z" fill="#2D56B3"/>
<path opacity="0.7" d="M198.711 5.42188H114.942C114.942 5.42188 99.8525 19.3165 99.8525 53.0973C99.8525 82.1483 111.296 121.537 107 137.661C103.76 149.826 88.0476 151.917 80.5166 152.205H160.25C160.25 152.205 186.472 153.789 190.768 137.661C195.064 121.532 183.62 82.1483 183.62 53.0917C183.62 19.2944 198.711 5.42188 198.711 5.42188Z" fill="white"/>
<g opacity="0.8">
<path opacity="0.8" d="M175.924 41.0477H108.929C110.824 26.186 115.932 17.538 118.75 13.7585H183.349C180.181 20.3725 177.191 29.3817 175.924 41.0477Z" fill="#284076"/>
<path opacity="0.3" d="M175.362 48.9288H108.273C108.329 47.5781 108.407 46.2665 108.518 44.9993H175.568C175.475 46.2777 175.407 47.5874 175.362 48.9288Z" fill="#A1B8ED"/>
<path opacity="0.3" d="M129.309 56.8043H108.251C108.214 55.5481 108.193 54.3125 108.189 53.0972V52.8804H129.253V53.0916C129.253 54.3199 129.271 55.5593 129.309 56.8043Z" fill="#A1B8ED"/>
<path opacity="0.3" d="M175.762 64.68H108.723C108.606 63.3572 108.512 62.0456 108.439 60.7561H175.506C175.573 62.0567 175.658 63.3647 175.762 64.68Z" fill="#A1B8ED"/>
<path opacity="0.3" d="M176.502 72.5444H109.518C109.363 71.229 109.218 69.9192 109.085 68.615H176.124C176.218 69.9377 176.358 71.2494 176.502 72.5444Z" fill="#A1B8ED"/>
<path opacity="0.3" d="M177.468 80.4363H110.54C110.357 79.1247 110.184 77.813 110.018 76.5125H176.968C177.123 77.8205 177.29 79.1283 177.468 80.4363Z" fill="#A1B8ED"/>
<path opacity="0.3" d="M178.574 88.3118H111.652C111.46 87.0002 111.275 85.6922 111.097 84.3879H178.013C178.197 85.6941 178.386 86.9946 178.574 88.3118Z" fill="#A1B8ED"/>
<path opacity="0.3" d="M179.757 96.1932H112.857C112.752 95.4761 112.641 94.7481 112.529 94.02L112.263 92.2637H179.163C179.363 93.5753 179.557 94.887 179.757 96.1932Z" fill="#A1B8ED"/>
<path opacity="0.3" d="M114.025 104.069C113.84 102.772 113.655 101.464 113.47 100.145H180.359C180.553 101.456 180.753 102.763 180.943 104.069H114.025Z" fill="#A1B8ED"/>
<path opacity="0.3" d="M115.086 111.944C114.931 110.66 114.758 109.349 114.581 108.02H170.382C170.571 109.343 170.749 110.655 170.938 111.944H115.086Z" fill="#A1B8ED"/>
<path opacity="0.3" d="M115.91 119.825C115.802 118.543 115.68 117.233 115.543 115.896H182.526C182.676 117.24 182.815 118.552 182.932 119.825H115.91Z" fill="#A1B8ED"/>
<path opacity="0.3" d="M116.292 127.701C116.292 126.433 116.243 125.121 116.17 123.777H151.513C151.602 125.15 151.652 126.461 151.668 127.701H116.292Z" fill="#A1B8ED"/>
</g>
<path d="M166.676 147.953C162.423 148.726 158.116 148.137 153.843 147.953C151.792 147.821 149.735 147.875 147.695 148.115C145.694 148.382 143.704 148.904 141.687 148.726C142.355 148.368 142.982 147.942 143.56 147.454C143.586 147.428 143.605 147.397 143.614 147.361C143.624 147.327 143.624 147.291 143.615 147.255C143.606 147.221 143.588 147.189 143.563 147.163C143.538 147.137 143.506 147.119 143.471 147.109C137.197 144.886 131.483 150.9 125.23 149.499C127.004 148.187 129.499 148.159 131.011 146.437C131.038 146.407 131.058 146.369 131.064 146.329C131.071 146.288 131.067 146.247 131.051 146.209C131.036 146.172 131.008 146.14 130.975 146.117C130.941 146.094 130.901 146.081 130.861 146.08C125.269 145.969 119.989 148.132 114.431 148.627C114.165 148.627 114.165 149.065 114.431 149.043C119.795 148.576 124.936 146.525 130.343 146.48C128.726 147.926 126.259 147.976 124.613 149.432C124.588 149.457 124.57 149.489 124.56 149.525C124.551 149.56 124.55 149.597 124.559 149.632C124.568 149.668 124.587 149.7 124.611 149.726C124.636 149.752 124.668 149.772 124.702 149.782C131.005 151.521 136.741 145.508 142.966 147.365C142.317 147.873 141.61 148.305 140.859 148.648C140.824 148.67 140.796 148.701 140.779 148.737C140.76 148.774 140.754 148.816 140.759 148.856C140.764 148.897 140.781 148.935 140.808 148.966C140.835 148.998 140.87 149.021 140.909 149.032C142.96 149.376 144.966 148.937 146.989 148.615C149.255 148.291 151.548 148.2 153.831 148.349C158.15 148.553 162.485 149.137 166.775 148.349C167.059 148.309 166.948 147.903 166.676 147.953Z" fill="#2D56B3"/>
<path d="M53.2279 25.9304C53.5781 26.3806 54.0282 26.9086 54.4394 27.3977C54.8508 27.8869 55.3009 28.3815 55.7456 28.8594C56.6405 29.8154 57.5463 30.7546 58.5246 31.6384C60.3385 33.3607 62.399 34.803 64.6382 35.918C64.9105 36.0402 65.194 36.1513 65.4441 36.2514C65.5678 36.3006 65.6938 36.3432 65.822 36.3792C65.9406 36.4261 66.0634 36.4615 66.1888 36.4848C66.7222 36.622 67.2676 36.7076 67.8173 36.7405C69.0478 36.8004 70.281 36.7295 71.4966 36.5293C72.7876 36.3324 74.0661 36.0615 75.326 35.7178C76.6042 35.3844 77.9104 34.9732 79.1276 34.5452L80.2391 36.7682C77.7684 38.3128 75.093 39.5026 72.2913 40.3031C70.8142 40.726 69.2916 40.9704 67.7561 41.0312C66.9247 41.0646 66.092 41.0105 65.2718 40.87C65.0606 40.8367 64.8438 40.7866 64.6326 40.7366C64.4214 40.6866 64.1991 40.631 64.0157 40.5698C63.6266 40.4532 63.2487 40.3254 62.9041 40.1808C60.0752 39.0175 57.4719 37.3679 55.212 35.3065C54.1093 34.3509 53.0574 33.338 52.0607 32.272C51.5661 31.7161 51.0825 31.1993 50.6157 30.6436C50.1488 30.0878 49.7042 29.5319 49.2207 28.8928L53.2279 25.9304Z" fill="#FFB573"/>
<path d="M47.5759 24.3574C47.4536 27.4698 48.6874 33.0833 48.6874 33.0833L56.3906 32.1496C56.3906 32.1496 56.6741 23.935 55.179 21.9508C52.6502 18.6328 47.6926 21.4118 47.5759 24.3574Z" fill="#2D56B3"/>
<path d="M78.0938 35.3343L81.7008 32.033L82.1622 35.59C82.1622 35.59 80.6671 37.5964 78.9719 36.7516L78.0938 35.3343Z" fill="#FFB573"/>
<path d="M83.5131 32.2275L85.0414 34.2284L82.1624 35.59L81.7012 32.033L83.5131 32.2275Z" fill="#FFB573"/>
<path d="M82.6015 23.2291C82.9849 23.2291 83.1961 23.2291 83.4684 23.2291C83.585 23.2211 83.702 23.2211 83.8186 23.2291L84.1076 23.268C84.3571 23.2974 84.5946 23.3912 84.7968 23.5403C84.8952 23.6562 84.9604 23.7963 84.9858 23.9461L85.1136 24.3685L85.6305 26.0359L86.6642 29.4095L88.7263 36.1623C90.0879 40.6642 91.5051 45.155 92.8168 49.6679C95.5124 58.6829 98.0634 67.731 100.57 76.7959C103.077 85.8608 105.433 94.9646 107.856 104.029C110.28 113.094 112.447 122.265 113.22 131.78C113.248 132.416 113.056 133.042 112.678 133.554C112.299 134.066 111.756 134.433 111.14 134.592C110.523 134.752 109.871 134.695 109.291 134.431C108.712 134.167 108.241 133.711 107.956 133.142C104.01 124.449 101.432 115.407 99.1751 106.28C96.9185 97.1544 94.5231 88.1062 92.3111 78.9857C90.0991 69.8653 87.937 60.6947 85.9139 51.5075C84.8746 46.9224 83.9298 42.3094 82.935 37.7129L81.462 30.8101L80.723 27.3586L80.3561 25.6302L80.2616 25.2022C80.2112 25.0576 80.1996 24.9024 80.2282 24.752C80.3364 24.5315 80.4967 24.3408 80.6951 24.1962L80.934 24.0184C81.0257 23.9485 81.1224 23.8854 81.2231 23.8294C81.462 23.6904 81.6344 23.5737 81.9789 23.407C82.1729 23.3077 82.3843 23.2472 82.6015 23.2291Z" fill="#263238"/>
<path d="M112.686 133.214C112.645 133.064 112.546 132.936 112.41 132.857C112.275 132.78 112.115 132.758 111.964 132.797L110.741 133.114L109.518 133.431C109.367 133.47 109.237 133.567 109.157 133.702C109.077 133.836 109.053 133.996 109.09 134.148C109.852 137.649 109.09 140.156 109.902 143.234C110.741 146.476 114.393 148.137 114.393 148.137L114.276 146.753L114.832 148.021C114.832 148.021 117.216 144.797 116.377 141.557C115.587 138.478 113.72 136.644 112.686 133.214Z" fill="#2D56B3"/>
<path opacity="0.3" d="M112.686 133.214C112.645 133.064 112.546 132.936 112.41 132.857C112.275 132.78 112.115 132.758 111.964 132.797L110.741 133.114L109.518 133.431C109.367 133.47 109.237 133.567 109.157 133.702C109.077 133.836 109.053 133.996 109.09 134.148C109.852 137.649 109.09 140.156 109.902 143.234C110.741 146.476 114.393 148.137 114.393 148.137L114.276 146.753L114.832 148.021C114.832 148.021 117.216 144.797 116.377 141.557C115.587 138.478 113.72 136.644 112.686 133.214Z" fill="white"/>
<path d="M113.637 141.251C113.673 141.397 113.664 141.55 113.613 141.692C113.562 141.832 113.47 141.956 113.35 142.045C113.229 142.134 113.084 142.187 112.934 142.193C112.784 142.2 112.635 142.164 112.506 142.086C112.377 142.008 112.274 141.895 112.209 141.759C112.145 141.623 112.122 141.472 112.144 141.323C112.165 141.174 112.23 141.036 112.331 140.924C112.431 140.812 112.563 140.733 112.708 140.695C112.905 140.646 113.113 140.677 113.287 140.782C113.461 140.886 113.587 141.054 113.637 141.251Z" fill="#263238"/>
<path d="M114.321 146.92C114.3 146.926 114.276 146.928 114.253 146.926C114.231 146.924 114.209 146.916 114.189 146.904C114.169 146.893 114.152 146.878 114.138 146.86C114.125 146.84 114.115 146.82 114.11 146.798L112.731 141.489C112.726 141.468 112.724 141.445 112.727 141.422C112.73 141.4 112.737 141.378 112.749 141.359C112.76 141.338 112.775 141.321 112.793 141.308C112.811 141.294 112.832 141.285 112.854 141.278C112.876 141.272 112.899 141.27 112.921 141.272C112.944 141.274 112.966 141.282 112.986 141.294C113.006 141.305 113.023 141.32 113.037 141.338C113.05 141.358 113.06 141.378 113.065 141.4L114.444 146.709C114.449 146.73 114.45 146.753 114.448 146.776C114.445 146.798 114.438 146.82 114.426 146.839C114.415 146.86 114.399 146.877 114.382 146.89C114.364 146.904 114.343 146.913 114.321 146.92Z" fill="#263238"/>
<path d="M109.818 114.128L102.326 116.068C102.118 116.12 101.898 116.088 101.713 115.979C101.529 115.87 101.396 115.692 101.342 115.485C101.288 115.28 101.317 115.063 101.42 114.88C101.524 114.696 101.695 114.56 101.898 114.501L109.428 112.561C109.633 112.508 109.849 112.536 110.033 112.64C110.217 112.743 110.353 112.915 110.412 113.117C110.441 113.222 110.449 113.333 110.435 113.441C110.42 113.55 110.385 113.654 110.329 113.749C110.274 113.843 110.2 113.925 110.112 113.99C110.024 114.056 109.924 114.103 109.818 114.128Z" fill="#2D56B3"/>
<path d="M71.7859 12.4084C71.6525 12.7417 71.7248 13.0919 71.9415 13.1864C72.1583 13.2809 72.4473 13.0864 72.5807 12.7529C72.7141 12.4194 72.6473 12.0693 72.425 11.9748C72.2027 11.8803 71.9248 12.0748 71.7859 12.4084Z" fill="#263238"/>
<path d="M72.3252 11.9634L73.2199 12.0801C73.2199 12.0801 72.5531 12.5191 72.3252 11.9634Z" fill="#263238"/>
<path d="M71.9419 12.8528C71.9331 13.7475 72.0453 14.6393 72.2754 15.5039C72.0536 15.5512 71.8244 15.5494 71.6035 15.4985C71.3827 15.4475 71.1756 15.3489 70.9971 15.2094L71.9419 12.8528Z" fill="#ED893E"/>
<path d="M73.1305 10.3741C73.0957 10.3674 73.0633 10.3521 73.036 10.3296C72.8361 10.1468 72.5966 10.0126 72.3364 9.93746C72.0761 9.86227 71.802 9.84812 71.5354 9.89609C71.4809 9.90982 71.4232 9.90185 71.3745 9.87386C71.3257 9.84586 71.2898 9.80002 71.2741 9.74603C71.2604 9.69153 71.2684 9.63382 71.2964 9.58509C71.3244 9.53635 71.3702 9.50039 71.4242 9.48481C71.7581 9.41861 72.1029 9.43139 72.4309 9.5221C72.759 9.61281 73.0614 9.77894 73.3139 10.0072C73.3337 10.0269 73.3494 10.0503 73.3602 10.076C73.3709 10.1018 73.3765 10.1294 73.3765 10.1573C73.3765 10.1852 73.3709 10.2129 73.3602 10.2386C73.3494 10.2644 73.3337 10.2877 73.3139 10.3074C73.2913 10.3328 73.2626 10.3522 73.2306 10.3639C73.1986 10.3755 73.1642 10.379 73.1305 10.3741Z" fill="#263238"/>
<path d="M60.0035 12.2358C60.2425 14.9426 59.3421 19.3722 57.2969 20.8784C57.2969 20.8784 58.8364 23.724 63.7662 24.3853C69.1851 25.1134 66.6396 22.0621 66.6396 22.0621C63.755 20.9506 64.0664 18.7997 64.7944 16.8211L60.0035 12.2358Z" fill="#FFB573"/>
<path d="M74.7699 26.6807C75.1978 29.204 75.7258 31.8217 76.2761 34.3728C76.5706 35.6456 76.8652 36.9239 77.2098 38.1744C77.5544 39.4249 77.899 40.6754 78.2825 41.9037C78.4937 42.5095 78.6826 43.1265 78.905 43.7155L79.2384 44.6048L79.3162 44.8216V44.8883C79.3273 44.9224 79.3403 44.9557 79.3552 44.9883C79.4697 45.1865 79.6572 45.3321 79.8776 45.394C80.3172 45.5506 80.7784 45.6387 81.2448 45.6553C82.4375 45.6882 83.6302 45.5913 84.8018 45.3663C86.0302 45.144 87.3251 44.8439 88.5312 44.5104L89.5483 46.7612C88.9355 47.126 88.3048 47.46 87.6586 47.7617C87.0201 48.0746 86.3651 48.3529 85.6967 48.5954C84.2971 49.1419 82.829 49.4935 81.3337 49.6402C80.4554 49.7201 79.5699 49.6601 78.7104 49.4624C77.609 49.2113 76.6175 48.6131 75.8815 47.7561C75.6912 47.526 75.5201 47.2807 75.3702 47.0225C75.2923 46.8947 75.2312 46.7612 75.1646 46.6335L75.059 46.3833L74.6254 45.4107C74.3419 44.7604 74.0696 44.1101 73.8306 43.4544C73.3527 42.1427 72.8969 40.8255 72.5023 39.5027C72.1076 38.18 71.752 36.846 71.3907 35.5121C70.7294 32.8332 70.1903 30.1821 69.79 27.4088L74.7699 26.6807Z" fill="#FFB573"/>
<path d="M87.9974 44.6661L90.1427 42.9653L91.1098 46.2667C91.1098 46.2667 88.1753 48.3899 87.3916 45.8944L87.9974 44.6661Z" fill="#FFB573"/>
<path d="M92.0826 43.549L92.8496 45.9611L91.1099 46.2667L90.1484 42.9653L92.0826 43.549Z" fill="#FFB573"/>
<path d="M52 149.471L56.4853 149.805L57.8135 139.505L53.3283 139.172L52 149.471Z" fill="#FFB573"/>
<path d="M23.2764 136.388L27.1613 138.75L33.6252 130.679L29.7401 128.318L23.2764 136.388Z" fill="#FFB573"/>
<path d="M29.8748 139.938C29.8196 139.948 29.7634 139.948 29.708 139.938C29.1523 139.938 28.4909 139.072 28.1574 138.56C28.1452 138.544 28.1387 138.524 28.1387 138.502C28.1387 138.481 28.1452 138.461 28.1574 138.444C28.1682 138.426 28.1839 138.412 28.2027 138.402C28.2215 138.394 28.2424 138.391 28.263 138.394C28.4464 138.433 30.0527 138.772 30.2639 139.305C30.2866 139.365 30.2933 139.429 30.2836 139.49C30.2738 139.553 30.2478 139.612 30.2083 139.661C30.1338 139.79 30.0155 139.889 29.8748 139.938ZM28.4854 138.678C28.9578 139.344 29.4079 139.738 29.7136 139.744C29.7802 139.745 29.8458 139.728 29.9034 139.695C29.9611 139.662 30.0088 139.614 30.0415 139.556C30.0564 139.533 30.0643 139.505 30.0643 139.478C30.0643 139.45 30.0564 139.423 30.0415 139.4C29.9526 139.117 29.1245 138.833 28.4854 138.682V138.678Z" fill="#2D56B3"/>
<path d="M29.6348 138.55C29.173 138.676 28.6897 138.7 28.2176 138.622C28.2 138.616 28.1842 138.606 28.1715 138.592C28.1589 138.578 28.1499 138.562 28.1453 138.544C28.1365 138.529 28.1318 138.512 28.1318 138.494C28.1318 138.477 28.1365 138.46 28.1453 138.444C28.1786 138.405 29.0623 137.5 29.7126 137.527C29.7965 137.528 29.8792 137.549 29.9542 137.585C30.0293 137.623 30.0949 137.678 30.1461 137.744C30.2064 137.804 30.2445 137.881 30.2547 137.965C30.2648 138.048 30.2461 138.134 30.2017 138.205C30.0547 138.378 29.8558 138.498 29.6348 138.55ZM28.4676 138.449C29.0234 138.511 29.8794 138.35 30.0516 138.094C30.0516 138.049 30.0961 137.989 30.0071 137.877C29.9743 137.834 29.9323 137.8 29.8842 137.776C29.8361 137.752 29.783 137.738 29.7293 137.738C29.2451 137.839 28.8043 138.087 28.4676 138.449Z" fill="#2D56B3"/>
<path d="M28.3284 137.883L24.6435 134.336C24.5826 134.275 24.5009 134.236 24.4137 134.23C24.3266 134.224 24.2402 134.251 24.1712 134.303L21.0253 136.727C20.9495 136.793 20.8889 136.877 20.8473 136.969C20.8057 137.061 20.7842 137.161 20.7842 137.263C20.7842 137.365 20.8057 137.464 20.8473 137.557C20.8889 137.649 20.9495 137.732 21.0253 137.799C22.3315 139.016 23.0206 139.539 24.638 141.101C25.6383 142.062 26.9946 143.563 28.3729 144.892C29.7513 146.22 31.0962 144.964 30.6405 144.291C28.5841 141.278 28.8898 140.15 28.7064 138.611C28.6672 138.332 28.5338 138.076 28.3284 137.883Z" fill="#263238"/>
<path d="M58.4306 149.949C57.956 149.94 57.4833 149.886 57.0188 149.788C56.9974 149.783 56.978 149.773 56.963 149.757C56.9481 149.741 56.9385 149.72 56.9355 149.698C56.9326 149.677 56.9364 149.654 56.9464 149.634C56.9562 149.615 56.9718 149.598 56.991 149.588C57.1968 149.481 59.0197 148.565 59.5532 148.876C59.6045 148.902 59.6476 148.942 59.678 148.991C59.7084 149.04 59.7249 149.096 59.7256 149.154C59.737 149.25 59.7242 149.349 59.6883 149.439C59.6524 149.528 59.5945 149.608 59.52 149.671C59.1986 149.884 58.8147 149.982 58.4306 149.949ZM57.3746 149.638C58.3638 149.799 59.103 149.76 59.381 149.516C59.43 149.473 59.4678 149.42 59.4912 149.36C59.5145 149.3 59.5225 149.234 59.5144 149.17C59.516 149.148 59.511 149.126 59.5002 149.106C59.4893 149.086 59.473 149.07 59.4532 149.06C59.1531 148.893 58.1249 149.281 57.3746 149.638Z" fill="#2D56B3"/>
<path d="M57.0414 149.799C57.0214 149.805 57.0003 149.805 56.9803 149.799C56.964 149.789 56.9511 149.773 56.9432 149.756C56.9353 149.737 56.9328 149.718 56.9359 149.699C56.9359 149.621 57.1527 147.787 58.1586 147.787H58.2419C58.5365 147.815 58.6198 147.959 58.6365 148.081C58.72 148.588 57.6306 149.56 57.0859 149.805L57.0414 149.799ZM58.153 147.982C57.5083 147.982 57.2526 149.048 57.1748 149.504C57.7306 149.171 58.4698 148.392 58.4199 148.103C58.4199 148.076 58.4198 148.004 58.2141 147.987L58.153 147.982Z" fill="#2D56B3"/>
<path d="M56.7631 149.165H51.7221C51.6349 149.165 51.5503 149.196 51.4833 149.252C51.4162 149.308 51.371 149.385 51.3553 149.471L50.6773 153.456C50.6638 153.556 50.6718 153.657 50.7008 153.753C50.7298 153.851 50.7792 153.94 50.8455 154.015C50.9119 154.091 50.9936 154.152 51.0854 154.193C51.1771 154.235 51.2768 154.256 51.3775 154.256C53.1338 154.256 53.9841 154.123 56.2017 154.123C57.5634 154.123 60.3813 154.262 62.2654 154.262C64.1495 154.262 64.2995 152.4 63.5159 152.233C60.02 151.477 58.6639 150.432 57.5079 149.454C57.3016 149.273 57.0377 149.171 56.7631 149.165Z" fill="#263238"/>
<path opacity="0.2" d="M57.8131 139.505L57.0739 145.23L52.6387 144.486L53.3278 139.177L57.8131 139.505Z" fill="black"/>
<path opacity="0.2" d="M29.7342 128.318L33.6247 130.685L30.9458 134.02L26.9775 131.758L29.7342 128.318Z" fill="black"/>
<path d="M49.7384 47.9006L67.8959 50.3406C74.9322 24.8744 72.8591 24.1907 72.8591 24.1907C72.059 23.8094 71.2324 23.4862 70.3858 23.2237C69.5299 22.9125 68.6648 22.629 67.7903 22.3733C66.0435 21.8549 64.2674 21.441 62.4714 21.1339C58.9856 20.5345 55.4426 20.335 51.9115 20.5392C51.5576 20.5639 51.2138 20.6682 50.9059 20.8444C50.5979 21.0205 50.3337 21.2639 50.133 21.5563C50.0575 21.6648 49.9923 21.7802 49.9384 21.9009C49.7409 22.3239 49.6639 22.7931 49.7161 23.257C51.25 36.6403 50.7554 41.0422 49.7384 47.9006Z" fill="#2D56B3"/>
<path opacity="0.2" d="M69.6626 31.9719C69.305 34.6068 69.6442 37.2897 70.6464 39.7529C71.8525 34.7841 72.5082 31.416 72.8306 29.0817C71.4467 29.0206 70.0072 29.5542 69.6626 31.9719Z" fill="black"/>
<path d="M72.6983 24.102C75.8108 25.8805 77.9727 30.1212 78.623 32.5833L71.998 38.6414C71.998 38.6414 68.5633 30.6548 68.8412 28.1759C69.119 25.6972 71.5257 23.4295 72.6983 24.102Z" fill="#2D56B3"/>
<path d="M60.9871 6.65031C59.5921 10.8632 58.9141 12.6139 60.1368 15.6152C61.9819 20.1337 67.4454 21.0897 70.0687 17.4159C72.4307 14.109 74.315 7.773 70.9525 4.40493C70.2458 3.65348 69.3554 3.09933 68.3691 2.7972C67.3829 2.49508 66.3349 2.45541 65.3287 2.68215C64.3224 2.90888 63.3927 3.39415 62.6313 4.09006C61.8699 4.78597 61.3032 5.66844 60.9871 6.65031Z" fill="#FFB573"/>
<path d="M67.8948 10.3852C67.6017 11.1579 67.5551 12.0025 67.7614 12.8028C68.0392 13.9144 68.8729 14.0089 69.3899 13.292C69.9067 12.5749 70.2568 11.28 69.7011 10.3463C69.1453 9.41253 68.256 9.5348 67.8948 10.3852Z" fill="#FFB573"/>
<path d="M62.499 1.40357C59.4977 -0.263796 54.0956 4.61601 52.7395 12.5804C51.7668 18.2828 63.944 21.0395 71.6361 20.9506C71.1248 19.6056 67.9291 15.5595 69.9688 11.6634C71.4527 8.83445 73.1423 9.49027 73.2535 6.20001C73.3925 2.05384 67.9013 -0.725096 62.499 1.40357Z" fill="#263238"/>
<path d="M69.3292 3.19315C72.8195 2.85413 76.3264 6.28333 73.7254 9.70142C73.0901 9.19193 72.3506 8.82829 71.5592 8.63621C70.7678 8.44413 69.9439 8.42829 69.1458 8.58984C67.5507 8.94554 69.3292 3.19315 69.3292 3.19315Z" fill="#263238"/>
<path d="M63.1032 49.6959C63.1032 49.6959 56.0725 79.4972 52.7379 96.621C49.2586 114.684 32.5795 133.503 32.5795 133.503L26.9326 130.346C26.9326 130.346 37.4259 113.172 40.8274 96.3042C47.7413 62.0677 43.0504 55.176 49.7199 47.9062L63.1032 49.6959Z" fill="#263238"/>
<path d="M33.1592 134.031L26.084 130.091L27.1178 128.001L35.0544 131.653L33.1592 134.031Z" fill="#2D56B3"/>
<path opacity="0.2" d="M59.3527 56.1709C53.8726 60.934 54.4673 77.8467 55.0398 85.4387C57.3407 74.6119 60.103 62.5624 61.7092 55.5874C61.1479 55.1539 60.3642 55.315 59.3527 56.1709Z" fill="black"/>
<path d="M67.6281 50.3517C67.6281 50.3517 70.8017 85.7387 69.0676 99.2332C67.2668 113.272 58.1074 143.813 58.1074 143.813L51.627 142.98C51.627 142.98 56.8848 112.711 57.8185 98.8163C58.8355 83.66 54.317 48.5676 54.317 48.5676L67.6281 50.3517Z" fill="#263238"/>
<path d="M59.4806 144.185L50.2656 142.996L50.4046 140.272L60.4087 141.24L59.4806 144.185Z" fill="#2D56B3"/>
<path d="M49.5756 46.8059L48.5864 48.3122C48.5085 48.4289 48.6475 48.5733 48.8531 48.6011L67.9 51.1578C68.0667 51.1578 68.2112 51.1188 68.2279 51.0188L68.5669 49.4293C68.5669 49.3181 68.4557 49.2015 68.2779 49.1792L49.8869 46.7115C49.8313 46.6999 49.7736 46.7025 49.7193 46.7189C49.6649 46.7355 49.6155 46.7653 49.5756 46.8059Z" fill="#284076"/>
<path opacity="0.5" d="M49.5756 46.8059L48.5864 48.3122C48.5085 48.4289 48.6475 48.5733 48.8531 48.6011L67.9 51.1578C68.0667 51.1578 68.2112 51.1188 68.2279 51.0188L68.5669 49.4293C68.5669 49.3181 68.4557 49.2015 68.2779 49.1792L49.8869 46.7115C49.8313 46.6999 49.7736 46.7025 49.7193 46.7189C49.6649 46.7355 49.6155 46.7653 49.5756 46.8059Z" fill="black"/>
<path d="M51.8331 49.2013L51.3385 49.1346C51.2385 49.1346 51.1718 49.0623 51.1828 49.0011L51.6386 46.9337C51.6386 46.8781 51.7442 46.8392 51.8387 46.8503L52.3334 46.917C52.4334 46.917 52.5001 46.9893 52.489 47.0504L52.0332 49.1179C52.0222 49.1513 51.9276 49.2013 51.8331 49.2013Z" fill="#263238"/>
<path d="M64.2714 50.8685L63.7768 50.8018C63.6824 50.8018 63.6101 50.7296 63.6213 50.6684L64.0769 48.6009C64.0769 48.5397 64.1825 48.5009 64.2826 48.5176L64.7717 48.5787C64.8718 48.5787 64.9384 48.6564 64.9273 48.7176L64.4715 50.7796C64.4605 50.8685 64.3659 50.8685 64.2714 50.8685Z" fill="#263238"/>
</g>
</g>
</g>
<defs>
<clipPath id="clip0_337_9555">
<rect width="216" height="160" fill="white" transform="translate(0 0.669922)"/>
</clipPath>
<clipPath id="clip1_337_9555">
<rect width="216" height="160" fill="white" transform="translate(0 0.669922)"/>
</clipPath>
<clipPath id="clip2_337_9555">
<rect width="216" height="160" fill="white" transform="translate(0 0.669922)"/>
</clipPath>
</defs>
</svg>
