<svg width="195" height="161" viewBox="0 0 195 161" fill="none" xmlns="http://www.w3.org/2000/svg">
<g clip-path="url(#clip0_337_9434)">
<g clip-path="url(#clip1_337_9434)">
<g clip-path="url(#clip2_337_9434)">
<path d="M97.3267 160.668C150.788 160.668 194.128 158.137 194.128 155.016C194.128 151.894 150.788 149.364 97.3267 149.364C43.8654 149.364 0.526367 151.894 0.526367 155.016C0.526367 158.137 43.8654 160.668 97.3267 160.668Z" fill="#F5F5F5"/>
<path d="M154.817 28.0853C155.515 30.4268 159.12 34.8102 159.404 38.0005C159.689 41.1907 153.544 46.2931 153.544 46.2931C153.544 46.2931 148.951 30.9361 151.826 29.1438C154.702 27.3514 154.817 28.0853 154.817 28.0853Z" fill="#263238"/>
<path d="M142.195 44.6757C141.107 45.5844 140.039 46.3482 138.924 47.1321C137.811 47.9159 136.664 48.6299 135.495 49.2989C134.322 49.9926 133.114 50.6242 131.875 51.1911C131.247 51.4756 130.623 51.7551 129.974 51.9998C129.654 52.1297 129.329 52.2544 129 52.3643L128.001 52.7138C127.148 52.9525 126.254 53.0169 125.375 52.9035C124.64 52.8175 123.912 52.6773 123.198 52.484C121.867 52.1157 120.564 51.6518 119.3 51.0962C116.844 50.0242 114.476 48.764 112.215 47.3268L113.148 45.5894C114.327 46.0887 115.535 46.5879 116.733 47.0223C117.932 47.4566 119.14 47.9159 120.348 48.2903C121.526 48.6764 122.726 48.9899 123.942 49.2289C124.501 49.3382 125.066 49.4065 125.634 49.4336C126.058 49.4665 126.485 49.4225 126.893 49.3038C128.032 48.868 129.145 48.3679 130.227 47.8061C130.782 47.5165 131.331 47.2219 131.871 46.9024C132.409 46.583 132.959 46.2734 133.493 45.9439C134.567 45.2799 135.615 44.5759 136.654 43.852C137.691 43.1281 138.725 42.3543 139.649 41.6204L142.195 44.6757Z" fill="#E58A7B"/>
<path d="M144.831 39.3585C143.593 38.39 138.47 41.5603 136.918 42.8834L138.051 49.7381C138.051 49.7381 145.415 46.6527 145.855 44.5458C146.319 42.3442 145.754 40.0975 144.831 39.3585Z" fill="#2D56B3"/>
<path opacity="0.2" d="M144.831 39.3585C143.593 38.39 138.47 41.5603 136.918 42.8834L138.051 49.7381C138.051 49.7381 145.415 46.6527 145.855 44.5458C146.319 42.3442 145.754 40.0975 144.831 39.3585Z" fill="#2D56B3"/>
<path d="M162.059 60.1027L146.513 63.1332C138.48 41.3807 140.227 40.6668 140.227 40.6668C141.357 40.0459 142.524 39.4958 143.722 39.0192L143.932 38.9393C144.93 38.5749 145.13 38.52 146.458 38.1306C148.744 37.5863 150.876 37.1321 153.517 36.7577L154.016 36.6877C154.516 36.6279 154.971 36.5779 155.429 36.533C155.739 36.498 156.048 36.478 156.343 36.458L157.342 36.4032C159.049 36.3183 160.272 36.3433 160.272 36.3433C159.798 49.9279 160.567 53.8271 162.059 60.1027Z" fill="#2D56B3"/>
<path opacity="0.2" d="M162.059 60.1027L146.513 63.1332C138.48 41.3807 140.227 40.6668 140.227 40.6668C141.357 40.0459 142.524 39.4958 143.722 39.0192L143.932 38.9393C144.93 38.5749 145.13 38.52 146.458 38.1306C148.744 37.5863 150.876 37.1321 153.517 36.7577L154.016 36.6877C154.516 36.6279 154.971 36.5779 155.429 36.533C155.739 36.498 156.048 36.478 156.343 36.458L157.342 36.4032C159.049 36.3183 160.272 36.3433 160.272 36.3433C159.798 49.9279 160.567 53.8271 162.059 60.1027Z" fill="#2D56B3"/>
<path d="M149.883 29.6481C148.886 31.3006 152.505 32.0644 154.647 30.372C156.358 29.014 155.954 25.8787 154.487 25.1498C153.019 24.4209 149.883 29.6481 149.883 29.6481Z" fill="#2D56B3"/>
<path opacity="0.4" d="M149.883 29.6481C148.886 31.3006 152.505 32.0644 154.647 30.372C156.358 29.014 155.954 25.8787 154.487 25.1498C153.019 24.4209 149.883 29.6481 149.883 29.6481Z" fill="black"/>
<path d="M165.015 150.139L161.126 150.428L159.703 141.476L163.592 141.187L165.015 150.139Z" fill="#E58A7B"/>
<path d="M192.524 137.627L189.224 139.704L183.349 132.735L186.648 130.653L192.524 137.627Z" fill="#E58A7B"/>
<path d="M159.703 141.476L160.492 146.449L164.327 145.805L163.598 141.192L159.703 141.476Z" fill="#CF6F64"/>
<path d="M186.654 130.657L183.349 132.735L185.785 135.621L189.16 133.629L186.654 130.657Z" fill="#CF6F64"/>
<path d="M146.753 63.1335C146.753 63.1335 146.698 93.9974 149.219 105.62C151.845 117.712 159.569 145.221 159.569 145.221L165.171 144.497C165.171 144.497 160.793 116.708 158.925 104.691C156.893 91.596 158.141 60.9167 158.141 60.9167L146.753 63.1335Z" fill="#2D56B3"/>
<path opacity="0.7" d="M146.753 63.1335C146.753 63.1335 146.698 93.9974 149.219 105.62C151.845 117.712 159.569 145.221 159.569 145.221L165.171 144.497C165.171 144.497 160.793 116.708 158.925 104.691C156.893 91.596 158.141 60.9167 158.141 60.9167L146.753 63.1335Z" fill="black"/>
<path opacity="0.5" d="M157.791 74.5963L155.045 71.8604C155.15 83.7176 155.814 89.5739 158.095 95.9543C157.736 89.2094 157.705 81.2313 157.791 74.5963Z" fill="black"/>
<path d="M150.617 62.3344C150.617 62.3344 158.99 87.8413 163.144 102.534C167.526 118.036 184.332 135.18 184.332 135.18L189.154 132.395C189.154 132.395 177.671 116.119 173.449 101.656C164.861 72.2945 168.39 66.0738 162.055 60.1028L150.617 62.3344Z" fill="#2D56B3"/>
<path opacity="0.7" d="M150.617 62.3344C150.617 62.3344 158.99 87.8413 163.144 102.534C167.526 118.036 184.332 135.18 184.332 135.18L189.154 132.395C189.154 132.395 177.671 116.119 173.449 101.656C164.861 72.2945 168.39 66.0738 162.055 60.1028L150.617 62.3344Z" fill="black"/>
<path d="M144.038 20.6416C146.264 21.3856 148.286 26.9123 148.371 29.089C148.456 31.2657 141.92 34.2663 141.92 34.2663C141.92 34.2663 139.04 27.2767 139.844 22.7835C140.193 20.8313 144.038 20.6416 144.038 20.6416Z" fill="#263238"/>
<path d="M113.477 45.7741L110.836 42.8984L109.973 46.503C109.973 46.503 111.85 48.1606 113.368 47.5914L113.477 45.7741Z" fill="#E58A7B"/>
<path d="M108.161 42.0745L106.313 43.5423L109.973 46.5029L110.837 42.8982L108.161 42.0745Z" fill="#E58A7B"/>
<path d="M188.19 138.96L191.276 135.849C191.33 135.796 191.401 135.764 191.475 135.759C191.55 135.753 191.626 135.775 191.685 135.819L194.497 137.906C194.566 137.961 194.623 138.03 194.665 138.108C194.706 138.186 194.73 138.273 194.734 138.361C194.74 138.449 194.726 138.538 194.694 138.62C194.663 138.703 194.614 138.778 194.551 138.84C193.453 139.904 192.874 140.363 191.516 141.731C190.682 142.575 189.549 143.888 188.396 145.051C187.242 146.214 186.029 145.131 186.399 144.552C188.081 141.921 187.781 140.937 187.897 139.599C187.914 139.357 188.019 139.13 188.19 138.96Z" fill="#263238"/>
<path d="M160.867 149.869H165.251C165.327 149.868 165.401 149.895 165.461 149.945C165.52 149.994 165.56 150.062 165.575 150.138L166.263 153.603C166.279 153.688 166.276 153.775 166.253 153.86C166.231 153.943 166.19 154.021 166.135 154.087C166.079 154.154 166.009 154.206 165.931 154.243C165.852 154.279 165.766 154.298 165.679 154.296C164.147 154.272 163.408 154.182 161.48 154.182C160.298 154.182 157.851 154.302 156.213 154.302C154.577 154.302 154.402 152.684 155.075 152.54C158.071 151.881 159.244 150.977 160.228 150.108C160.406 149.956 160.632 149.871 160.867 149.869Z" fill="#263238"/>
<g style="mix-blend-mode:multiply" opacity="0.27">
<path d="M160.777 44.2166L158.381 45.6444L161.146 56.0439C160.543 52.8936 160.812 49.4338 160.777 44.2166Z" fill="#1AB76D"/>
</g>
<path d="M147.157 27.9807C148.859 29.4037 151.331 31.4755 154.242 29.0542C156.738 26.9673 158.485 21.4904 154.006 21.2908C151.666 21.1858 147.157 27.9807 147.157 27.9807Z" fill="#263238"/>
<path d="M151.271 28.9541C151.271 31.3106 151.636 35.5593 153.518 36.7675C153.518 36.7675 153.348 39.1938 149.124 40.0126C144.486 40.9163 146.459 38.1403 146.459 38.1403C148.875 37.042 148.455 35.1748 147.656 33.4973L151.271 28.9541Z" fill="#E58A7B"/>
<path d="M149.798 30.8066L147.661 33.4975C147.849 33.8865 148.002 34.2907 148.121 34.7057C149.059 34.3763 150.182 33.0582 150.087 32.0248C150.067 31.6043 149.969 31.1913 149.798 30.8066Z" fill="#CF6F64"/>
<path d="M151.496 23.5423C151.995 27.3815 152.299 28.9941 150.762 31.3156C148.45 34.8104 143.628 34.5857 141.985 30.9761C140.487 27.726 139.928 21.9896 143.343 19.7679C144.094 19.2709 144.959 18.9742 145.857 18.9062C146.756 18.8382 147.656 19.001 148.473 19.3794C149.29 19.7577 149.997 20.3388 150.526 21.0675C151.055 21.7962 151.389 22.6481 151.496 23.5423Z" fill="#E58A7B"/>
<path d="M144.826 16.8173C142.23 18.6595 147.436 19.2038 147.442 21.8748C147.442 22.9782 149.253 26.4779 151.831 26.2782L154.326 21.8448C156.953 17.6012 150.747 12.6086 144.826 16.8173Z" fill="#263238"/>
<path d="M144.825 16.8174C140.257 16.5777 138.265 20.2123 138.79 23.4774C141.976 22.6828 145.273 22.4213 148.545 22.7036C154.805 23.3426 144.825 16.8174 144.825 16.8174Z" fill="#263238"/>
<path d="M152.745 26.8526C152.808 27.5978 152.573 28.3378 152.09 28.9095C151.447 29.6635 150.593 29.2191 150.294 28.3255C150.039 27.5167 150.069 26.1536 150.937 25.7243C151.129 25.6356 151.341 25.5959 151.551 25.6092C151.762 25.6223 151.967 25.6879 152.146 25.7998C152.326 25.9118 152.474 26.0667 152.578 26.2505C152.683 26.4343 152.741 26.6413 152.745 26.8526Z" fill="#E58A7B"/>
<path d="M145.948 25.724C146.009 26.0336 145.893 26.3131 145.695 26.3531C145.495 26.393 145.28 26.1733 145.22 25.8538C145.16 25.5343 145.275 25.2598 145.474 25.2198C145.674 25.1799 145.889 25.4145 145.948 25.724Z" fill="#263238"/>
<path d="M142.459 26.4033C142.519 26.7129 142.404 26.9974 142.204 27.0373C142.004 27.0773 141.789 26.8575 141.73 26.538C141.669 26.2186 141.785 25.944 141.985 25.909C142.184 25.874 142.399 26.0888 142.459 26.4033Z" fill="#263238"/>
<path d="M142.081 25.9138L141.297 25.8489C141.297 25.8489 141.791 26.3532 142.081 25.9138Z" fill="#263238"/>
<path d="M143.488 26.7576C143.348 27.5139 143.107 28.2478 142.77 28.9393C142.948 29.0228 143.143 29.066 143.341 29.066C143.539 29.066 143.734 29.0228 143.912 28.9393L143.488 26.7576Z" fill="#DF5753"/>
<path d="M145.215 29.9377C145.193 29.9379 145.173 29.9306 145.157 29.9169C145.139 29.903 145.129 29.8838 145.126 29.8627C145.123 29.8509 145.123 29.8388 145.126 29.827C145.129 29.8154 145.134 29.8043 145.141 29.7945C145.147 29.7848 145.157 29.7764 145.167 29.7701C145.177 29.7638 145.189 29.7597 145.2 29.7579C145.586 29.6907 145.951 29.5338 146.265 29.2995C146.578 29.0654 146.833 28.7607 147.008 28.4099C147.013 28.3987 147.018 28.3887 147.027 28.3801C147.035 28.3715 147.046 28.3648 147.057 28.3601C147.069 28.3555 147.08 28.3531 147.093 28.353C147.104 28.353 147.117 28.3554 147.127 28.36C147.138 28.3646 147.149 28.3713 147.158 28.3798C147.166 28.3883 147.173 28.3984 147.177 28.4096C147.182 28.4207 147.184 28.4326 147.184 28.4447C147.184 28.4567 147.182 28.4687 147.177 28.4798C146.994 28.8609 146.722 29.1924 146.384 29.4461C146.047 29.7 145.653 29.8685 145.235 29.9377H145.215Z" fill="#263238"/>
<path d="M146.753 24.3962C146.707 24.3968 146.663 24.3808 146.629 24.3513C146.461 24.1917 146.257 24.0741 146.034 24.0081C145.813 23.9422 145.578 23.9297 145.35 23.9719C145.3 23.9845 145.247 23.9765 145.202 23.9499C145.158 23.9231 145.126 23.8799 145.113 23.8296C145.101 23.7792 145.109 23.726 145.135 23.6815C145.161 23.6371 145.205 23.6051 145.255 23.5925C145.543 23.5358 145.84 23.5484 146.122 23.6291C146.405 23.7097 146.664 23.8564 146.878 24.0567C146.912 24.0913 146.931 24.138 146.931 24.1865C146.931 24.2351 146.912 24.2817 146.878 24.3164C146.864 24.3377 146.846 24.356 146.824 24.3697C146.802 24.3836 146.778 24.3926 146.753 24.3962Z" fill="#263238"/>
<path d="M140.528 25.0901C140.505 25.0953 140.481 25.0953 140.458 25.0901C140.435 25.0808 140.414 25.067 140.396 25.0497C140.379 25.0323 140.366 25.0116 140.356 24.9888C140.347 24.966 140.343 24.9416 140.343 24.917C140.343 24.8923 140.348 24.8681 140.358 24.8455C140.464 24.5724 140.634 24.3288 140.854 24.1351C141.074 23.9414 141.337 23.8032 141.62 23.7321C141.644 23.7271 141.67 23.727 141.694 23.7319C141.718 23.7368 141.74 23.7466 141.761 23.7606C141.78 23.7746 141.798 23.7927 141.81 23.8135C141.824 23.8344 141.832 23.8576 141.835 23.8819C141.841 23.9055 141.841 23.9299 141.836 23.9537C141.832 23.9775 141.823 24 141.809 24.02C141.795 24.0401 141.778 24.0571 141.758 24.0703C141.737 24.0835 141.714 24.0924 141.691 24.0966C141.466 24.1578 141.259 24.2704 141.086 24.4255C140.913 24.5807 140.778 24.774 140.692 24.9902C140.676 25.0201 140.652 25.0451 140.624 25.0626C140.594 25.0802 140.561 25.0897 140.528 25.0901Z" fill="#263238"/>
<path d="M187.033 140.772C186.947 140.77 186.864 140.747 186.789 140.705C186.714 140.664 186.65 140.604 186.603 140.532C186.568 140.49 186.544 140.44 186.535 140.385C186.526 140.331 186.53 140.275 186.549 140.222C186.723 139.754 188.102 139.454 188.256 139.419C188.274 139.416 188.293 139.418 188.31 139.425C188.327 139.432 188.341 139.444 188.351 139.459C188.362 139.474 188.368 139.491 188.368 139.509C188.368 139.526 188.362 139.545 188.351 139.558C188.081 140.003 187.552 140.747 187.058 140.772H187.033ZM188.077 139.649C187.533 139.788 186.814 140.038 186.723 140.288C186.714 140.31 186.713 140.336 186.718 140.36C186.723 140.384 186.736 140.405 186.753 140.422C186.784 140.474 186.829 140.516 186.881 140.546C186.934 140.574 186.993 140.589 187.054 140.587C187.318 140.572 187.693 140.228 188.077 139.649Z" fill="#2D56B3"/>
<path d="M187.851 139.649C187.351 139.649 186.727 139.524 186.543 139.255C186.502 139.193 186.483 139.12 186.49 139.047C186.495 138.972 186.527 138.904 186.578 138.85C186.622 138.794 186.677 138.748 186.74 138.716C186.803 138.683 186.871 138.665 186.942 138.66H186.982C187.541 138.66 188.31 139.415 188.34 139.444C188.352 139.456 188.36 139.47 188.365 139.486C188.37 139.502 188.37 139.519 188.365 139.535C188.36 139.55 188.352 139.563 188.341 139.575C188.33 139.586 188.316 139.595 188.3 139.599C188.154 139.634 188.003 139.651 187.851 139.649ZM186.982 138.846H186.952C186.908 138.847 186.863 138.858 186.823 138.879C186.784 138.9 186.749 138.929 186.723 138.966C186.653 139.06 186.672 139.115 186.698 139.15C186.847 139.379 187.611 139.51 188.08 139.455C187.781 139.15 187.399 138.938 186.982 138.846Z" fill="#2D56B3"/>
<path d="M159.434 150.553C159.098 150.582 158.762 150.498 158.48 150.313C158.414 150.261 158.361 150.193 158.328 150.115C158.295 150.037 158.282 149.953 158.29 149.869C158.29 149.819 158.303 149.769 158.327 149.725C158.352 149.682 158.388 149.645 158.43 149.619C158.889 149.349 160.497 150.148 160.677 150.238C160.694 150.247 160.707 150.261 160.717 150.278C160.726 150.294 160.729 150.314 160.727 150.333C160.725 150.351 160.717 150.37 160.704 150.383C160.691 150.398 160.675 150.407 160.657 150.413C160.255 150.497 159.845 150.543 159.434 150.553ZM158.695 149.743C158.637 149.74 158.577 149.753 158.525 149.779C158.509 149.788 158.495 149.802 158.486 149.819C158.477 149.835 158.473 149.854 158.476 149.874C158.47 149.93 158.479 149.987 158.501 150.038C158.522 150.091 158.557 150.137 158.6 150.173C158.849 150.388 159.494 150.422 160.343 150.283C159.828 150.013 159.27 149.83 158.695 149.743Z" fill="#2D56B3"/>
<path d="M160.637 150.403H160.603C160.103 150.188 159.14 149.339 159.21 148.905C159.21 148.805 159.299 148.675 159.549 148.651H159.623C160.493 148.651 160.717 150.238 160.727 150.308C160.73 150.325 160.727 150.341 160.722 150.357C160.715 150.373 160.706 150.387 160.692 150.398C160.675 150.405 160.655 150.406 160.637 150.403ZM159.638 148.826H159.583C159.424 148.826 159.414 148.9 159.414 148.921C159.374 149.185 160.034 149.849 160.532 150.143C160.432 149.754 160.178 148.835 159.619 148.835L159.638 148.826Z" fill="#2D56B3"/>
<path d="M145.569 25.2347L144.785 25.1648C144.785 25.1648 145.28 25.674 145.569 25.2347Z" fill="#263238"/>
<path d="M149 43.3328C140.648 45.195 143.228 40.1426 143.728 39.0293L143.937 38.9494C144.936 38.5849 145.136 38.53 146.464 38.1406C148.781 37.515 151.14 37.0562 153.523 36.7676L154.022 36.6978C154.522 36.6329 154.976 36.5829 155.435 36.5429C155.745 36.508 156.054 36.4881 156.349 36.4681L157.347 36.4082C157.517 37.187 157.932 41.3508 149 43.3328Z" fill="#E58A7B"/>
<path d="M162.11 59.1442L163.084 60.4022C163.158 60.4971 163.053 60.6319 162.874 60.6669L146.568 63.8421C146.429 63.8721 146.298 63.8421 146.274 63.7373L145.859 62.3743C145.859 62.2794 145.939 62.1746 146.089 62.1447L161.835 59.0793C161.883 59.0652 161.933 59.0639 161.981 59.0753C162.029 59.0866 162.074 59.1104 162.11 59.1442Z" fill="#26395A"/>
<path d="M160.338 61.3159L160.763 61.236C160.848 61.236 160.903 61.1661 160.888 61.1112L160.338 59.3439C160.338 59.2889 160.239 59.264 160.154 59.2789L159.735 59.3588C159.649 59.3588 159.594 59.4337 159.609 59.4836L160.159 61.256C160.173 61.306 160.258 61.3359 160.338 61.3159Z" fill="#1AB76D"/>
<path d="M150.787 67.2072L147.537 65.999L148.037 69.0893C148.037 69.0893 150.393 69.9381 151.595 68.8497L150.787 67.2072Z" fill="#E58A7B"/>
<path d="M144.441 66.8177L143.667 68.8448L148.035 69.0893L147.537 65.999L144.441 66.8177Z" fill="#E58A7B"/>
<path d="M147.781 63.7622L148.206 63.6823C148.286 63.6823 148.346 63.6125 148.326 63.5575L147.777 61.7901C147.777 61.7353 147.682 61.7102 147.597 61.7252L147.172 61.8051C147.087 61.8051 147.033 61.8801 147.053 61.9299L147.602 63.7023C147.617 63.7522 147.697 63.7822 147.781 63.7622Z" fill="#658EEA"/>
<path d="M154.061 62.5342L154.481 62.4543C154.566 62.4543 154.621 62.3844 154.606 62.3295L154.057 60.5621C154.057 60.5072 153.957 60.4822 153.872 60.4972L153.452 60.5771C153.368 60.5771 153.313 60.652 153.328 60.7019L153.877 62.4743C153.897 62.5032 153.926 62.5247 153.96 62.5355C153.993 62.5464 154.029 62.5459 154.061 62.5342Z" fill="#658EEA"/>
<path d="M152.284 34.7856C152.64 34.6507 153.083 35.8989 152.973 36.0587C152.72 36.4231 148.056 37.6962 147.847 36.9822C147.833 36.5952 147.892 36.2092 148.022 35.8439C148.156 35.6043 149.189 36.0436 152.284 34.7856Z" fill="#2D56B3"/>
<path d="M151.496 34.8156C151.675 34.4012 152.19 33.7372 152.639 34.1166C153.089 34.496 153.279 35.3149 152.984 35.4496C152.689 35.5845 151.186 35.5096 151.496 34.8156Z" fill="#2D56B3"/>
<path d="M152.45 35.0302C152.759 34.7007 153.448 34.2464 153.763 34.7557C154.077 35.2649 153.962 36.0986 153.643 36.1236C153.323 36.1485 151.925 35.5744 152.45 35.0302Z" fill="#2D56B3"/>
<path d="M152.619 34.9553C152.594 34.6898 152.647 34.4227 152.77 34.1862C152.894 33.9498 153.082 33.7539 153.314 33.6223C153.883 33.2528 154.438 33.0131 154.657 32.6238C154.752 32.9888 154.77 33.3695 154.712 33.742C154.596 34.2763 152.825 34.6857 152.944 35.15L152.619 34.9553Z" fill="#2D56B3"/>
<path d="M152.545 34.9302C152.379 34.7206 152.278 34.4677 152.253 34.202C152.228 33.9362 152.281 33.6689 152.405 33.4324C152.675 32.8134 153.014 32.3141 152.994 31.8748C153.271 32.1302 153.494 32.4393 153.647 32.7834C153.837 33.2826 152.574 34.5957 152.929 34.9252L152.545 34.9302Z" fill="#2D56B3"/>
<path d="M187.268 132.459C187.257 132.459 187.248 132.456 187.239 132.451C187.23 132.446 187.223 132.439 187.218 132.43C187.103 132.27 175.69 115.984 171.507 101.676C168.775 92.4972 166.677 83.1425 165.226 73.6774C164.362 68.3453 163.837 65.1251 162.121 62.484C162.108 62.472 162.103 62.4559 162.103 62.4391C162.103 62.4224 162.108 62.4063 162.121 62.3942C162.132 62.384 162.147 62.3784 162.163 62.3784C162.178 62.3784 162.194 62.384 162.205 62.3942C163.942 65.0602 164.467 68.2904 165.331 73.6374C166.789 83.089 168.891 92.4301 171.621 101.596C175.8 115.884 187.202 132.15 187.318 132.314C187.327 132.327 187.333 132.342 187.333 132.358C187.333 132.372 187.327 132.387 187.318 132.4C187.317 132.414 187.312 132.427 187.303 132.438C187.294 132.449 187.281 132.456 187.268 132.459Z" fill="#95AAFF"/>
<path opacity="0.4" d="M187.268 132.459C187.257 132.459 187.248 132.456 187.239 132.451C187.23 132.446 187.223 132.439 187.218 132.43C187.103 132.27 175.69 115.984 171.507 101.676C168.775 92.4972 166.677 83.1425 165.226 73.6774C164.362 68.3453 163.837 65.1251 162.121 62.484C162.108 62.472 162.103 62.4559 162.103 62.4391C162.103 62.4224 162.108 62.4063 162.121 62.3942C162.132 62.384 162.147 62.3784 162.163 62.3784C162.178 62.3784 162.194 62.384 162.205 62.3942C163.942 65.0602 164.467 68.2904 165.331 73.6374C166.789 83.089 168.891 92.4301 171.621 101.596C175.8 115.884 187.202 132.15 187.318 132.314C187.327 132.327 187.333 132.342 187.333 132.358C187.333 132.372 187.327 132.387 187.318 132.4C187.317 132.414 187.312 132.427 187.303 132.438C187.294 132.449 187.281 132.456 187.268 132.459Z" fill="black"/>
<path d="M166.174 144.477L158.545 145.465L158.046 143.338L165.989 141.656L166.174 144.477Z" fill="#2D56B3"/>
<path d="M189.56 132.225L183.932 135.475L182.035 133.853L188.192 129.689L189.56 132.225Z" fill="#2D56B3"/>
<path d="M163.154 41.6304C163.423 43.0182 163.579 44.3263 163.729 45.6793C163.878 47.0323 163.933 48.3703 163.973 49.7233C164.013 51.0868 163.982 52.4515 163.883 53.8121C163.828 54.496 163.769 55.18 163.674 55.869C163.634 56.2086 163.588 56.553 163.524 56.8975L163.339 57.9559C163.134 58.8187 162.76 59.6318 162.236 60.3473C161.806 60.9495 161.332 61.5185 160.818 62.0498C159.854 63.0395 158.82 63.9573 157.722 64.7957C155.6 66.4303 153.353 67.8975 151.002 69.1842L149.934 67.5266C150.932 66.7328 151.931 65.914 152.93 65.0803C153.928 64.2465 154.876 63.4028 155.791 62.5242C156.693 61.6784 157.545 60.7797 158.341 59.8331C158.707 59.3951 159.041 58.9312 159.34 58.4452C159.576 58.091 159.745 57.6969 159.84 57.2819C160.002 56.0699 160.097 54.8499 160.124 53.6274C160.124 53.0033 160.124 52.3793 160.124 51.7552C160.124 51.1311 160.099 50.4971 160.069 49.868C160.009 48.6099 159.894 47.3717 159.76 46.0937C159.625 44.8155 159.45 43.5525 159.26 42.3692L163.154 41.6304Z" fill="#E58A7B"/>
<path d="M162.549 37.3866C164.682 39.1141 164.172 44.2464 164.172 44.2464L156.982 46.6128C156.982 46.6128 157.313 40.6967 157.672 38.5699C158.091 36.0386 160.447 35.6841 162.549 37.3866Z" fill="#2D56B3"/>
<path opacity="0.2" d="M162.549 37.3866C164.682 39.1141 164.172 44.2464 164.172 44.2464L156.982 46.6128C156.982 46.6128 157.313 40.6967 157.672 38.5699C158.091 36.0386 160.447 35.6841 162.549 37.3866Z" fill="#2D56B3"/>
<path d="M67.5751 58.805C67.2963 57.5945 66.6151 56.5143 65.6431 55.7409C64.671 54.9674 63.4654 54.5463 62.2232 54.5464H22.2829C20.8263 54.5464 19.4295 55.125 18.3995 56.1549C17.3696 57.1848 16.791 58.5817 16.791 60.0382V148.815C16.791 150.273 17.3696 151.669 18.3995 152.699C19.4295 153.728 20.8263 154.308 22.2829 154.308H149.093C150.55 154.308 151.947 153.728 152.976 152.699C154.007 151.669 154.585 150.273 154.585 148.815V74.2419C154.585 72.7855 154.007 71.3886 152.976 70.3587C151.947 69.3288 150.55 68.7502 149.093 68.7502H80.0716C77.1707 68.7507 74.3554 67.7674 72.0856 65.961C69.816 64.1547 68.2258 61.632 67.5751 58.805Z" fill="#407BFF"/>
<path opacity="0.6" d="M67.5751 58.805C67.2963 57.5945 66.6151 56.5143 65.6431 55.7409C64.671 54.9674 63.4654 54.5463 62.2232 54.5464H22.2829C20.8263 54.5464 19.4295 55.125 18.3995 56.1549C17.3696 57.1848 16.791 58.5817 16.791 60.0382V148.815C16.791 150.273 17.3696 151.669 18.3995 152.699C19.4295 153.728 20.8263 154.308 22.2829 154.308H149.093C150.55 154.308 151.947 153.728 152.976 152.699C154.007 151.669 154.585 150.273 154.585 148.815V74.2419C154.585 72.7855 154.007 71.3886 152.976 70.3587C151.947 69.3288 150.55 68.7502 149.093 68.7502H80.0716C77.1707 68.7507 74.3554 67.7674 72.0856 65.961C69.816 64.1547 68.2258 61.632 67.5751 58.805Z" fill="#18181B"/>
<path opacity="0.22" d="M53.4766 31.1562L57.0362 42.684C57.4906 44.1512 58.5088 45.378 59.8671 46.095C61.2254 46.812 62.8126 46.9607 64.2805 46.5083L75.8032 42.9486L53.4766 31.1562Z" fill="#1AB76D"/>
<path d="M53.4767 31.1562L12.2882 43.8822C11.5612 44.1056 10.8852 44.4701 10.2992 44.9549C9.71307 45.4398 9.22834 46.0355 8.87267 46.7079C8.51701 47.3802 8.29741 48.1161 8.22643 48.8734C8.15543 49.6308 8.23447 50.3947 8.45898 51.1214L31.9738 127.248C32.1983 127.975 32.5637 128.65 33.0493 129.236C33.5348 129.821 34.131 130.305 34.8037 130.661C35.4765 131.016 36.2126 131.234 36.9699 131.305C37.7274 131.376 38.4912 131.297 39.2181 131.072L91.9343 114.786C92.6609 114.562 93.3364 114.197 93.9218 113.712C94.5074 113.227 94.9916 112.632 95.3468 111.959C95.7019 111.287 95.9211 110.551 95.9918 109.794C96.0624 109.037 95.9833 108.274 95.7586 107.547L75.7884 42.9486L53.4767 31.1562Z" fill="#1AB76D"/>
<path d="M53.4767 31.1562L12.2882 43.8822C11.5612 44.1056 10.8852 44.4701 10.2992 44.9549C9.71307 45.4398 9.22834 46.0355 8.87267 46.7079C8.51701 47.3802 8.29741 48.1161 8.22643 48.8734C8.15543 49.6308 8.23447 50.3947 8.45898 51.1214L31.9738 127.248C32.1983 127.975 32.5637 128.65 33.0493 129.236C33.5348 129.821 34.131 130.305 34.8037 130.661C35.4765 131.016 36.2126 131.234 36.9699 131.305C37.7274 131.376 38.4912 131.297 39.2181 131.072L91.9343 114.786C92.6609 114.562 93.3364 114.197 93.9218 113.712C94.5074 113.227 94.9916 112.632 95.3468 111.959C95.7019 111.287 95.9211 110.551 95.9918 109.794C96.0624 109.037 95.9833 108.274 95.7586 107.547L75.7884 42.9486L53.4767 31.1562Z" fill="#C5D7FF"/>
<g opacity="0.28">
<path opacity="0.28" d="M75.6387 111.461L41.37 122.046C40.7291 122.242 40.0363 122.177 39.4432 121.865C38.8501 121.552 38.4047 121.017 38.2047 120.377C38.0095 119.737 38.0759 119.045 38.3893 118.453C38.7027 117.861 39.2375 117.416 39.8771 117.217L74.146 106.628C74.7875 106.432 75.4808 106.497 76.0741 106.811C76.6674 107.124 77.1123 107.66 77.3112 108.301C77.5064 108.942 77.44 109.634 77.1267 110.226C76.8133 110.818 76.2784 111.262 75.6387 111.461Z" fill="#1AB76D"/>
</g>
<g opacity="0.28">
<path opacity="0.28" d="M38.7586 49.344L20.6357 54.9406C19.9948 55.1361 19.3027 55.0705 18.7099 54.7583C18.1172 54.446 17.6717 53.9123 17.4704 53.2731C17.2752 52.6316 17.3414 51.9389 17.6548 51.346C17.968 50.7531 18.503 50.3081 19.143 50.1078L37.2659 44.5112C37.9067 44.313 38.6001 44.3773 39.1936 44.6899C39.7871 45.0026 40.2322 45.5381 40.4311 46.1788C40.6264 46.8203 40.5602 47.5129 40.2469 48.1058C39.9337 48.6989 39.3987 49.1439 38.7586 49.344Z" fill="#1AB76D"/>
</g>
<g opacity="0.28">
<path d="M53.5463 55.2801L23.591 64.5312C22.9515 64.7233 22.262 64.6554 21.6722 64.3423C21.0824 64.0292 20.6399 63.496 20.4407 62.8587C20.244 62.2185 20.3091 61.5264 20.6216 60.9341C20.9342 60.3417 21.4687 59.8974 22.1082 59.6984L52.0635 50.4473C52.7043 50.2504 53.3971 50.3153 53.9903 50.6277C54.5834 50.9403 55.0286 51.4749 55.2287 52.1148C55.4222 52.7576 55.354 53.4509 55.0389 54.0436C54.7238 54.6364 54.1874 55.0807 53.5463 55.2801Z" fill="#9CBBFF"/>
</g>
<g opacity="0.28">
<path d="M70.2727 60.6172L26.558 74.0972C25.9178 74.2938 25.2257 74.2288 24.6333 73.9163C24.041 73.6037 23.5967 73.0691 23.3976 72.4296C23.2022 71.7888 23.2678 71.0966 23.58 70.5038C23.8923 69.911 24.426 69.4655 25.0652 69.2643L68.7799 55.7844C69.4201 55.5891 70.1116 55.6548 70.7035 55.9672C71.2955 56.2795 71.7401 56.8132 71.9402 57.4519C72.137 58.0928 72.0721 58.7856 71.7596 59.3787C71.4472 59.9719 70.9126 60.4172 70.2727 60.6172Z" fill="#9CBBFF"/>
</g>
<g opacity="0.28">
<path opacity="0.28" d="M73.2325 70.2028L47.8205 78.0562C47.1796 78.2513 46.4876 78.1849 45.8955 77.8715C45.3034 77.5582 44.8593 77.0233 44.6602 76.3837C44.4649 75.7435 44.5305 75.052 44.8429 74.46C45.1553 73.868 45.689 73.4236 46.3277 73.2233L71.7398 65.3701C72.3812 65.1763 73.0733 65.2431 73.6659 65.5561C74.2584 65.8693 74.7037 66.4034 74.905 67.0426C75.1001 67.6835 75.0337 68.3755 74.7204 68.9676C74.407 69.5597 73.8721 70.0038 73.2325 70.2028Z" fill="#1AB76D"/>
</g>
<g opacity="0.28">
<path d="M36.1678 81.6559L29.5228 83.708C28.8819 83.9048 28.1891 83.8399 27.596 83.5274C27.0028 83.2148 26.5576 82.6802 26.3575 82.0404C26.1608 81.3989 26.2264 80.7056 26.5399 80.1123C26.8534 79.5191 27.3892 79.0742 28.03 78.8751L34.6751 76.8231C35.316 76.6277 36.0081 76.6933 36.6008 77.0055C37.1936 77.3179 37.6391 77.8516 37.8403 78.4908C38.0342 79.1322 37.9673 79.8243 37.6543 80.4169C37.3412 81.0094 36.8071 81.4547 36.1678 81.6559Z" fill="#9CBBFF"/>
</g>
<g opacity="0.28">
<path d="M76.1986 79.7935L32.4838 93.2983C31.8429 93.4934 31.151 93.427 30.5589 93.1137C29.9668 92.8003 29.5227 92.2655 29.3236 91.6258C29.1268 90.9856 29.1919 90.2935 29.5045 89.7012C29.8169 89.1089 30.3516 88.6645 30.9911 88.4656L74.7058 74.9607C75.346 74.7654 76.0374 74.8311 76.6294 75.1434C77.2214 75.4558 77.6659 75.9895 77.866 76.6282C78.0628 77.2691 77.9979 77.9619 77.6855 78.555C77.373 79.1481 76.8384 79.5934 76.1986 79.7935Z" fill="#9CBBFF"/>
</g>
<g opacity="0.28">
<path opacity="0.28" d="M62.2886 94.5914L35.4437 102.884C34.8035 103.079 34.112 103.014 33.52 102.701C32.928 102.389 32.4836 101.855 32.2834 101.216C32.088 100.576 32.1534 99.8834 32.4658 99.2906C32.7781 98.6979 33.3118 98.2524 33.951 98.0512L60.7958 89.7586C61.4374 89.5633 62.13 89.6296 62.7229 89.9428C63.3158 90.2562 63.761 90.7911 63.9611 91.4311C64.1576 92.072 64.0918 92.7645 63.7783 93.357C63.4647 93.9495 62.929 94.3934 62.2886 94.5914Z" fill="#1AB76D"/>
</g>
<g opacity="0.28">
<path opacity="0.28" d="M79.1583 89.3841L71.994 91.5959C71.3525 91.791 70.6597 91.7249 70.0668 91.4115C69.4739 91.0983 69.0289 90.5633 68.8287 89.9233C68.6336 89.2824 68.7 88.5905 69.0134 87.9982C69.3267 87.4061 69.8616 86.9622 70.5012 86.763L77.6655 84.5514C78.3058 84.3546 78.9977 84.4197 79.5901 84.7322C80.1825 85.0447 80.6268 85.5793 80.8258 86.2189C81.0226 86.8597 80.9577 87.5524 80.6452 88.1456C80.3328 88.7387 79.7982 89.184 79.1583 89.3841Z" fill="#1AB76D"/>
</g>
<g opacity="0.28">
<path opacity="0.28" d="M82.1189 98.98L38.4141 112.46C37.7727 112.657 37.0793 112.591 36.4861 112.277C35.8928 111.964 35.4479 111.428 35.2489 110.787C35.0524 110.147 35.1181 109.454 35.4317 108.861C35.7452 108.269 36.281 107.825 36.9214 107.627L80.6311 94.1224C81.2727 93.9284 81.9648 93.9953 82.5573 94.3084C83.1499 94.6214 83.5951 95.1556 83.7964 95.7949C83.8967 96.1141 83.9328 96.4501 83.9026 96.7833C83.8725 97.1165 83.7767 97.4405 83.6207 97.7366C83.4648 98.0327 83.2518 98.295 82.9941 98.5085C82.7363 98.7219 82.4389 98.8821 82.1189 98.98Z" fill="#1AB76D"/>
</g>
<path d="M83.0573 2.52912L96.1278 31.6556C96.4671 32.416 96.4915 33.2796 96.196 34.058C95.9003 34.8364 95.3086 35.4661 94.5501 35.8094L39.1029 60.6972C38.3427 61.0379 37.4785 61.0631 36.6998 60.7674C35.9211 60.4716 35.2914 59.879 34.9491 59.1196L21.8736 29.9931C21.5314 29.2324 21.5053 28.3669 21.8011 27.587C22.097 26.807 22.6906 26.1766 23.4513 25.8344L78.8984 0.946491C79.6601 0.607294 80.525 0.583354 81.3043 0.879902C82.0836 1.17645 82.7138 1.76938 83.0573 2.52912Z" fill="#2D56B3"/>
<path d="M74.3198 1.08984L72.5479 1.88472L72.7522 2.34023L74.5241 1.54537L74.3198 1.08984Z" fill="#2D56B3"/>
<path d="M70.0655 2.99561L64.54 5.47423L64.7444 5.92975L70.2698 3.45114L70.0655 2.99561Z" fill="#2D56B3"/>
<path d="M21.8246 32.9285L21.3691 33.1329L22.8824 36.5032L23.3379 36.2988L21.8246 32.9285Z" fill="#2D56B3"/>
<path opacity="0.6" d="M81.2001 0.841524L66.9015 28.8497C65.5747 31.4456 63.4018 33.5113 60.742 34.705C58.0822 35.8988 55.0948 36.1492 52.2734 35.4149L21.8438 27.4817C22.156 26.7516 22.7291 26.1642 23.4514 25.8343L78.8985 0.946367C79.6249 0.62158 80.4473 0.584117 81.2001 0.841524Z" fill="#284076"/>
<path d="M100.856 36.688L57.8305 39.344C57.0705 39.3893 56.3267 39.5839 55.6418 39.9168C54.957 40.2498 54.3446 40.7145 53.8396 41.2844C53.3346 41.8543 52.9469 42.5183 52.6988 43.2382C52.4507 43.9581 52.3471 44.7199 52.3937 45.48L57.3013 125.001C57.3471 125.761 57.5426 126.505 57.8764 127.191C58.2103 127.875 58.676 128.488 59.247 128.992C59.8178 129.497 60.4827 129.885 61.2035 130.131C61.9243 130.378 62.6868 130.481 63.4472 130.433L118.515 127.033C119.275 126.988 120.017 126.792 120.701 126.458C121.384 126.126 121.996 125.661 122.5 125.09C123.002 124.52 123.389 123.856 123.636 123.137C123.882 122.417 123.985 121.656 123.937 120.897L119.793 53.4131L100.856 36.688Z" fill="#2D56B3"/>
<path opacity="0.8" d="M100.856 36.688L57.8305 39.344C57.0705 39.3893 56.3267 39.5839 55.6418 39.9168C54.957 40.2498 54.3446 40.7145 53.8396 41.2844C53.3346 41.8543 52.9469 42.5183 52.6988 43.2382C52.4507 43.9581 52.3471 44.7199 52.3937 45.48L57.3013 125.001C57.3471 125.761 57.5426 126.505 57.8764 127.191C58.2103 127.875 58.676 128.488 59.247 128.992C59.8178 129.497 60.4827 129.885 61.2035 130.131C61.9243 130.378 62.6868 130.481 63.4472 130.433L118.515 127.033C119.275 126.988 120.017 126.792 120.701 126.458C121.384 126.126 121.996 125.661 122.5 125.09C123.002 124.52 123.389 123.856 123.636 123.137C123.882 122.417 123.985 121.656 123.937 120.897L119.793 53.4131L100.856 36.688Z" fill="#C5D7FF"/>
<g opacity="0.22">
<path opacity="0.22" d="M103.457 119.949L67.6558 122.16C66.9869 122.199 66.3301 121.971 65.8288 121.526C65.3274 121.083 65.0222 120.457 64.9798 119.789C64.9414 119.12 65.1684 118.463 65.6116 117.962C66.0547 117.46 66.6781 117.152 67.3462 117.108L103.148 114.901C103.817 114.862 104.474 115.088 104.976 115.532C105.479 115.975 105.785 116.599 105.829 117.268C105.868 117.938 105.641 118.596 105.197 119.098C104.752 119.6 104.127 119.907 103.457 119.949Z" fill="#1AB76D"/>
</g>
<g opacity="0.22">
<path opacity="0.22" d="M82.2693 50.8917L63.3326 52.05C62.664 52.0884 62.0075 51.8613 61.5054 51.4181C61.0034 50.975 60.6965 50.3516 60.6516 49.6835C60.6132 49.0142 60.841 48.3568 61.2852 47.8547C61.7294 47.3525 62.354 47.0462 63.023 47.0026L81.9598 45.8343C82.6281 45.7946 83.2849 46.0214 83.7864 46.4649C84.288 46.9084 84.5933 47.5326 84.6357 48.2007C84.6781 48.8712 84.4528 49.5312 84.0091 50.0358C83.5655 50.5402 82.9398 50.8481 82.2693 50.8917Z" fill="#2D56B3"/>
</g>
<g opacity="0.22">
<path opacity="0.22" d="M95.2393 60.1478L63.9511 62.075C63.2819 62.116 62.6238 61.8899 62.1212 61.4462C61.6185 61.0026 61.3125 60.3777 61.2701 59.7085C61.2304 59.0388 61.4577 58.3808 61.9022 57.8783C62.3466 57.3758 62.9721 57.07 63.6415 57.0276L94.9248 55.1005C95.594 55.0594 96.2521 55.2856 96.7547 55.7292C97.2573 56.1729 97.5634 56.7978 97.6058 57.4669C97.6454 58.1358 97.4188 58.7931 96.9755 59.2954C96.5321 59.7978 95.9079 60.1042 95.2393 60.1478Z" fill="#2D56B3"/>
</g>
<g opacity="0.22">
<path opacity="0.22" d="M110.232 69.2792L64.5705 72.095C63.8995 72.1361 63.2395 71.9095 62.7352 71.4651C62.2309 71.0207 61.9231 70.3944 61.8794 69.7236C61.8398 69.0552 62.0666 68.3985 62.5102 67.8969C62.9536 67.3954 63.5778 67.0899 64.2459 67.0475L109.913 64.2268C110.582 64.1885 111.238 64.4164 111.74 64.8607C112.241 65.3051 112.546 65.9297 112.589 66.5983C112.628 67.2655 112.403 67.9214 111.962 68.4235C111.521 68.9255 110.899 69.2331 110.232 69.2792Z" fill="#2D56B3"/>
</g>
<g opacity="0.22">
<path opacity="0.22" d="M110.851 79.2944L84.3059 80.932C83.637 80.9716 82.9797 80.745 82.4774 80.3016C81.975 79.8583 81.6685 79.2341 81.6248 78.5655C81.5839 77.8963 81.81 77.2382 82.2536 76.7356C82.6974 76.233 83.3223 75.9269 83.9913 75.8845L110.537 74.2469C111.206 74.206 111.864 74.4321 112.367 74.8757C112.869 75.3195 113.175 75.9443 113.218 76.6135C113.257 77.2823 113.031 77.9396 112.587 78.442C112.144 78.9443 111.52 79.2508 110.851 79.2944Z" fill="#2D56B3"/>
</g>
<g opacity="0.22">
<path opacity="0.22" d="M72.13 81.6808L65.1854 82.1102C64.517 82.1498 63.8603 81.9231 63.3587 81.4796C62.8571 81.036 62.5517 80.4119 62.5093 79.7437C62.4697 79.0748 62.6963 78.4175 63.1397 77.9152C63.5831 77.4128 64.2072 77.1064 64.8758 77.0628L71.8205 76.6333C72.4898 76.595 73.1471 76.8228 73.6493 77.267C74.1515 77.7112 74.4578 78.3358 74.5014 79.0048C74.5397 79.6737 74.3118 80.3305 73.8675 80.8318C73.4232 81.3332 72.7985 81.6384 72.13 81.6808Z" fill="#1AB76D"/>
</g>
<g opacity="0.22">
<path opacity="0.22" d="M111.47 89.3095L65.8033 92.1253C65.1344 92.165 64.477 91.9383 63.9748 91.4949C63.4724 91.0516 63.166 90.4274 63.1223 89.7589C63.0839 89.0895 63.3117 88.4322 63.7559 87.93C64.2001 87.4278 64.8248 87.1216 65.4938 87.0778L111.156 84.262C111.825 84.2224 112.483 84.4496 112.986 84.8941C113.488 85.3386 113.794 85.964 113.837 86.6335C113.876 87.3018 113.649 87.9587 113.206 88.4601C112.762 88.9617 112.138 89.2671 111.47 89.3095Z" fill="#1AB76D"/>
</g>
<g opacity="0.22">
<path opacity="0.22" d="M94.4655 100.413L66.4224 102.145C65.753 102.184 65.0957 101.956 64.5935 101.512C64.0914 101.067 63.7851 100.443 63.7415 99.7738C63.7032 99.105 63.931 98.4482 64.3754 97.9469C64.8197 97.4455 65.4443 97.1403 66.1128 97.0979L94.156 95.3655C94.8248 95.3272 95.4815 95.5551 95.9829 95.9994C96.4844 96.4437 96.7895 97.0683 96.832 97.7368C96.8729 98.4055 96.6467 99.0631 96.2029 99.5649C95.7591 100.067 95.1341 100.372 94.4655 100.413Z" fill="#1AB76D"/>
</g>
<g opacity="0.22">
<path opacity="0.22" d="M112.085 99.3293L104.596 99.7886C103.927 99.8283 103.271 99.6016 102.769 99.158C102.268 98.7145 101.962 98.0904 101.92 97.4222C101.879 96.7531 102.105 96.0949 102.549 95.5923C102.992 95.0897 103.617 94.7835 104.286 94.7412L111.775 94.2818C112.444 94.2409 113.102 94.467 113.605 94.9107C114.108 95.3544 114.414 95.9793 114.456 96.6484C114.494 97.3176 114.267 97.975 113.822 98.4772C113.378 98.9794 112.754 99.2857 112.085 99.3293Z" fill="#1AB76D"/>
</g>
<g opacity="0.22">
<path opacity="0.22" d="M112.703 109.344L67.041 112.16C66.3721 112.2 65.7147 111.973 65.2125 111.53C64.7101 111.086 64.4036 110.462 64.3599 109.794C64.3203 109.125 64.5469 108.467 64.9903 107.965C65.4337 107.463 66.0578 107.156 66.7265 107.113L112.393 104.297C113.062 104.257 113.718 104.484 114.22 104.928C114.721 105.371 115.027 105.995 115.069 106.663C115.11 107.332 114.884 107.991 114.44 108.493C113.997 108.996 113.372 109.302 112.703 109.344Z" fill="#1AB76D"/>
</g>
<path opacity="0.22" d="M100.856 36.688L101.6 48.73C101.647 49.4893 101.842 50.2319 102.176 50.9157C102.509 51.5993 102.974 52.2106 103.544 52.7146C104.114 53.2185 104.777 53.6053 105.497 53.8527C106.216 54.1003 106.977 54.2036 107.736 54.157L119.793 53.4131L100.856 36.688Z" fill="#2D56B3"/>
<path d="M86.767 66.7282C86.7594 66.1511 86.6362 65.5814 86.4048 65.0527C86.1734 64.5241 85.8383 64.0472 85.4195 63.6502C85.0006 63.2531 84.5064 62.9441 83.966 62.7414C83.4258 62.5385 82.8503 62.4462 82.2736 62.4696H42.2834C39.2529 62.4696 36.2923 64.9309 35.7232 67.9614L19.9417 148.815C19.3526 151.846 21.3297 154.308 24.3601 154.308H151.171C154.201 154.308 157.137 151.851 157.73 148.815L170.746 82.1652C171.336 79.1297 169.359 76.6733 166.328 76.6733H97.3262C91.3351 76.6733 86.9716 72.5496 86.767 66.7282Z" fill="#2D56B3"/>
</g>
</g>
</g>
<defs>
<clipPath id="clip0_337_9434">
<rect width="194.28" height="160" fill="white" transform="translate(0.526367 0.669922)"/>
</clipPath>
<clipPath id="clip1_337_9434">
<rect width="194.28" height="160" fill="white" transform="translate(0.526367 0.669922)"/>
</clipPath>
<clipPath id="clip2_337_9434">
<rect width="194.28" height="159.995" fill="white" transform="translate(0.526367 0.672363)"/>
</clipPath>
</defs>
</svg>
